<?xml version="1.0" encoding="UTF-8"?>
<svg xmlns="http://www.w3.org/2000/svg" 
     viewBox="0 0 1091 950" 
     width="1091" height="950">
  <defs>
    <filter id="neon-glow" x="-30%" y="-30%" width="160%" height="160%">
      <feGaussianBlur in="SourceGraphic" stdDeviation="6" result="blur1"/>
      <feGaussianBlur in="SourceGraphic" stdDeviation="12" result="blur2"/>
      <feGaussianBlur in="SourceGraphic" stdDeviation="20" result="blur3"/>
      <feMerge>
        <feMergeNode in="blur3"/>
        <feMergeNode in="blur2"/>
        <feMergeNode in="blur1"/>
        <feMergeNode in="SourceGraphic"/>
      </feMerge>
    </filter>
    <filter id="soft-glow" x="-40%" y="-40%" width="180%" height="180%">
      <feGaussianBlur in="SourceGraphic" stdDeviation="18"/>
    </filter>
    <filter id="text-glow" x="-20%" y="-20%" width="140%" height="140%">
      <feGaussianBlur in="SourceGraphic" stdDeviation="4" result="blur"/>
      <feMerge>
        <feMergeNode in="blur"/>
        <feMergeNode in="SourceGraphic"/>
      </feMerge>
    </filter>
  </defs>
  
  <!-- Outer glow layer (soft blue aura) -->
  <g transform="translate(0,950) scale(0.1,-0.1)" fill="#0055bb" opacity="0.3" filter="url(#soft-glow)">
    <path d="M5230 9269 c-30 -4 -80 -9 -110 -12 -30 -4 -71 -8 -90 -11 -19 -3
-73 -11 -120 -17 -47 -6 -102 -20 -122 -30 -21 -11 -48 -19 -62 -19 -14 0 -27
-4 -30 -9 -3 -4 -27 -14 -53 -21 -88 -23 -248 -71 -265 -81 -10 -5 -24 -9 -31
-9 -7 0 -20 -9 -30 -20 -9 -11 -24 -20 -32 -20 -23 0 -225 -106 -247 -130 -13
-13 -26 -19 -39 -15 -13 4 -19 2 -19 -8 0 -8 -28 -29 -62 -47 -35 -18 -70 -39
-79 -46 -8 -8 -19 -14 -24 -14 -4 0 -15 -8 -24 -18 -20 -22 -93 -79 -148 -116
-24 -16 -43 -32 -43 -37 0 -11 -100 -109 -112 -109 -14 0 -68 -53 -68 -67 0
-7 -12 -20 -27 -30 -34 -21 -133 -123 -133 -136 0 -5 -11 -21 -25 -36 -88 -91
-115 -122 -116 -128 0 -5 -16 -28 -35 -53 -18 -25 -38 -55 -44 -67 -5 -13 -14
-23 -19 -23 -6 0 -19 -19 -29 -42 -11 -24 -32 -58 -46 -77 -14 -19 -26 -42
-26 -52 0 -9 -6 -22 -14 -28 -8 -7 -27 -36 -41 -64 -15 -29 -34 -60 -43 -70
-9 -10 -17 -25 -18 -34 -2 -9 -6 -19 -11 -22 -4 -3 -14 -18 -22 -33 -8 -15
-22 -36 -31 -45 -9 -10 -19 -26 -23 -35 -3 -10 -11 -18 -17 -18 -7 0 -29 -18
-50 -39 -20 -22 -49 -43 -64 -47 -14 -3 -26 -10 -26 -15 0 -4 -17 -11 -37 -15
-21 -4 -58 -17 -83 -29 -25 -12 -62 -25 -82 -29 -20 -4 -38 -11 -40 -16 -2 -5
-50 -26 -108 -46 -58 -21 -112 -43 -121 -51 -8 -7 -22 -13 -30 -13 -8 0 -39
-14 -69 -31 -30 -17 -115 -62 -188 -100 -74 -38 -147 -80 -164 -94 -16 -14
-36 -25 -43 -25 -7 0 -45 -19 -85 -42 -39 -24 -83 -49 -98 -57 -15 -8 -29 -17
-32 -21 -13 -18 -95 -70 -110 -70 -9 0 -29 -13 -45 -30 -16 -16 -34 -30 -41
-30 -6 0 -26 -13 -43 -29 -16 -15 -44 -34 -61 -41 -16 -7 -30 -16 -30 -21 0
-5 -5 -9 -11 -9 -7 0 -33 -19 -58 -41 -25 -23 -72 -65 -104 -93 -141 -124
-257 -250 -311 -339 -17 -29 -44 -65 -59 -81 -15 -16 -27 -37 -27 -47 0 -11
-4 -19 -10 -19 -5 0 -10 -9 -10 -19 0 -11 -4 -23 -10 -26 -5 -3 -14 -25 -20
-48 -6 -23 -20 -61 -31 -84 -10 -24 -19 -56 -19 -71 0 -16 -7 -53 -16 -83 -18
-59 -16 -261 4 -309 5 -14 15 -46 21 -73 22 -96 79 -205 143 -275 26 -30 48
-60 48 -67 0 -8 21 -31 47 -51 43 -34 66 -54 121 -105 9 -9 44 -31 77 -48 33
-17 78 -42 100 -56 45 -28 81 -45 96 -45 5 0 26 -8 47 -19 20 -10 73 -28 117
-41 44 -12 94 -28 110 -35 17 -7 53 -20 80 -30 28 -9 87 -35 133 -56 46 -21
88 -39 93 -39 16 0 111 -42 140 -61 14 -10 55 -26 90 -35 35 -10 71 -23 79
-30 33 -27 267 -35 330 -11 8 3 44 11 80 17 36 7 69 17 74 21 6 5 18 9 28 9
10 0 44 9 77 20 32 11 68 23 80 25 11 3 30 7 41 9 11 3 24 7 28 10 33 20 418
25 479 6 56 -18 107 -43 116 -57 4 -7 22 -20 40 -29 18 -9 34 -20 37 -23 8
-10 123 -105 162 -134 21 -15 38 -33 38 -40 0 -7 22 -28 47 -47 26 -19 63 -51
82 -70 41 -40 136 -105 166 -114 11 -3 38 -23 60 -43 55 -51 90 -74 180 -119
42 -21 79 -44 82 -51 3 -8 13 -11 23 -8 12 4 27 -3 42 -18 13 -14 41 -30 63
-37 22 -6 49 -15 60 -20 11 -5 43 -18 70 -28 28 -11 79 -31 115 -46 36 -14 70
-26 76 -26 5 0 15 -5 21 -11 7 -7 27 -13 45 -15 28 -2 96 -17 183 -39 11 -3
49 -10 85 -16 36 -6 71 -16 78 -22 15 -12 37 -15 177 -25 267 -18 565 -5 765
33 14 2 50 8 80 14 30 5 66 12 80 15 49 11 76 16 130 21 30 3 86 17 125 31 38
13 104 34 145 45 41 11 79 23 85 27 10 7 68 29 95 37 59 17 122 43 163 67 26
15 57 28 67 28 11 0 35 14 54 31 20 17 41 32 48 33 44 9 139 57 145 73 3 7 10
13 15 13 6 0 18 8 27 18 9 9 45 36 81 60 36 23 94 68 128 99 35 32 73 64 83
71 11 7 26 26 34 42 8 16 25 32 37 35 26 8 118 93 118 110 1 13 36 55 47 55 4
0 17 12 28 26 11 15 35 42 53 60 17 18 32 40 32 48 0 9 7 16 15 16 17 0 103
114 111 148 4 12 12 22 20 22 8 0 14 7 14 16 0 9 12 29 28 45 47 48 82 106 82
136 0 7 5 13 10 13 6 0 10 6 10 14 0 8 6 16 14 19 8 3 17 20 21 38 4 18 11 37
16 43 44 55 57 79 73 131 17 58 38 108 85 205 11 25 21 50 21 57 0 7 6 27 14
45 18 43 66 200 66 214 0 6 21 34 48 62 26 28 63 70 82 93 23 28 59 53 108 77
41 20 76 42 79 49 3 7 11 13 19 13 15 0 71 30 112 60 15 11 52 28 83 39 31 10
67 30 81 44 14 14 42 30 62 35 20 6 51 23 69 38 17 15 61 40 97 56 35 16 67
33 70 37 3 4 20 17 38 30 19 13 44 34 57 47 13 13 29 24 34 24 38 0 377 262
472 365 10 11 52 54 92 96 74 77 149 181 193 270 14 27 30 52 37 56 14 9 50
83 44 90 -3 2 4 28 15 56 37 95 69 266 63 332 -3 33 -7 78 -9 100 -3 35 -15
73 -46 150 -4 11 -16 40 -25 65 -20 55 -85 174 -97 179 -11 4 -45 40 -73 76
-21 28 -35 43 -57 60 -7 6 -39 32 -71 58 -33 26 -67 47 -78 47 -10 0 -19 7
-19 15 0 8 -4 15 -10 15 -5 0 -45 17 -87 37 -43 20 -84 38 -92 39 -8 2 -17 7
-20 12 -8 13 -77 40 -111 44 -14 2 -31 7 -39 12 -7 5 -30 13 -50 18 -92 23
-172 41 -236 53 -38 7 -81 16 -95 19 -82 20 -318 48 -455 54 -150 7 -490 8
-930 4 -120 -1 -191 2 -193 8 -2 5 -16 10 -32 10 -15 0 -33 7 -40 14 -6 8 -28
20 -47 27 -20 6 -51 21 -70 31 -18 11 -33 17 -33 13 0 -9 -77 52 -110 86 -14
15 -59 43 -99 63 -41 20 -84 47 -95 59 -20 21 -205 117 -226 117 -6 0 -27 11
-48 24 -20 13 -54 27 -75 31 -21 3 -47 15 -58 26 -10 10 -25 19 -33 19 -7 0
-31 8 -52 17 -22 9 -43 18 -49 19 -5 1 -32 11 -60 21 -27 10 -57 18 -65 18 -8
-1 -26 4 -40 11 -14 6 -45 15 -70 18 -25 4 -54 11 -65 16 -32 15 -239 53 -350
65 -33 3 -76 9 -95 12 -52 8 -496 10 -560 2z m595 -304 c533 -65 988 -253
1391 -577 629 -503 990 -1221 1022 -2031 l7 -168 150 75 c510 255 929 534
1164 776 510 523 227 913 -744 1025 -219 25 -532 38 -752 32 l-212 -6 -51 55
c-27 31 -50 59 -50 63 0 19 594 30 845 16 937 -53 1446 -284 1515 -689 26
-152 -32 -319 -176 -511 -449 -598 -1886 -1311 -3634 -1804 -341 -97 -449
-125 -814 -211 -140 -33 -512 -110 -681 -141 -33 -6 -80 -15 -105 -19 -62 -13
-268 -45 -435 -69 -130 -18 -182 -25 -397 -51 -392 -47 -1236 -100 -1394 -87
l-63 5 -30 -53 c-89 -157 -278 -213 -441 -130 -73 37 -147 125 -164 197 -5 23
-12 27 -58 33 -302 37 -643 146 -805 256 -259 177 -342 445 -220 711 103 226
370 488 747 733 117 76 297 185 306 185 3 0 18 8 32 19 34 24 426 223 552 280
239 109 312 141 321 141 14 0 11 -28 -13 -124 -18 -69 -27 -90 -44 -96 -55
-21 -492 -245 -599 -307 -216 -125 -478 -297 -574 -378 -296 -246 -437 -430
-471 -613 -48 -268 220 -480 729 -576 114 -22 111 -22 157 37 63 82 144 121
254 121 71 1 94 -3 140 -25 68 -32 136 -97 161 -155 l20 -44 272 0 c234 1 472
12 483 23 2 2 -25 59 -60 128 -145 286 -232 571 -271 888 -19 152 -19 500 0
651 145 1153 924 2069 1995 2346 122 31 223 49 410 73 110 14 455 12 585 -4z
m2965 -1234 c118 -18 179 -30 232 -45 29 -8 75 -21 102 -27 31 -8 62 -25 83
-46 19 -18 43 -33 54 -33 12 0 19 -7 19 -19 0 -11 9 -23 20 -26 36 -11 48 -44
45 -123 -2 -67 -5 -76 -34 -106 -17 -17 -31 -39 -31 -47 0 -8 -23 -34 -50 -59
-28 -25 -67 -60 -86 -77 -20 -18 -41 -33 -46 -33 -6 0 -31 -21 -57 -47 -58
-58 -98 -88 -131 -98 -14 -4 -42 -20 -62 -36 -40 -31 -195 -82 -204 -68 -3 5
-18 9 -34 9 -31 0 -100 52 -100 75 0 7 -7 15 -15 19 -8 3 -15 14 -15 25 0 11
-6 26 -12 33 -12 12 -21 29 -48 91 -11 26 -38 123 -51 185 -5 24 -17 55 -28
68 -17 22 -27 55 -45 151 -3 12 -9 30 -15 41 -13 24 -10 37 18 103 27 61 80
96 156 102 70 5 267 -2 335 -12z m-6370 -1503 c57 -35 100 -157 100 -280 0
-27 4 -48 9 -48 5 0 11 -37 14 -82 2 -46 11 -126 21 -178 17 -96 16 -154 -6
-238 -13 -51 -45 -72 -112 -72 -24 0 -46 -4 -48 -9 -1 -5 -39 -2 -83 5 -132
22 -328 28 -430 13 -139 -20 -291 -13 -335 15 -19 13 -50 29 -68 36 -39 15
-67 66 -77 138 -6 44 -3 54 25 95 17 26 36 47 41 47 5 0 9 5 9 11 0 17 92 125
122 143 15 9 46 34 69 55 24 21 59 47 78 57 37 20 53 32 98 75 16 15 56 41 91
58 35 17 65 38 68 45 3 8 26 22 52 31 26 10 54 23 62 30 78 65 236 92 300 53z
m5743 -585 c6 -12 -26 -135 -67 -257 -449 -1321 -1872 -2090 -3251 -1756 -284
69 -608 214 -855 384 -216 149 -537 443 -511 469 4 4 68 -52 142 -126 349
-349 710 -561 1175 -691 371 -103 812 -120 1204 -45 207 40 418 103 565 169
643 289 1091 707 1376 1283 83 167 199 495 199 561 0 16 15 22 23 9z m-723
-433 c0 -5 23 -10 50 -10 l50 0 0 -50 c0 -27 -4 -50 -10 -50 -5 0 -10 -18 -10
-40 0 -35 -3 -40 -22 -40 -14 0 -31 -12 -43 -30 -11 -16 -27 -30 -35 -30 -9 0
-21 -5 -27 -11 -7 -7 -25 -3 -62 15 -28 15 -51 23 -51 20 0 -17 -30 22 -49 62
-21 43 -21 46 -4 69 10 14 29 28 43 31 14 4 32 12 40 19 8 7 26 16 40 20 13 4
30 14 38 21 16 16 52 19 52 4z m-571 -396 c254 -63 317 -228 171 -444 -118
-175 -275 -274 -552 -347 -143 -38 -410 -40 -499 -5 -73 29 -141 89 -169 149
-99 211 197 508 625 629 130 37 317 44 424 18z m-2169 -420 c261 -51 463 -122
654 -233 170 -98 213 -210 109 -281 -103 -71 -500 2 -800 146 -152 73 -313
204 -332 271 -31 107 117 145 369 97z"/>
<path d="M5265 8949 c-823 -86 -1501 -491 -1952 -1167 -474 -710 -601 -1590
-344 -2387 46 -145 116 -302 211 -475 l30 -55 -28 -7 c-29 -9 -500 -28 -675
-28 l-108 0 -19 45 c-26 60 -100 138 -158 166 -71 33 -189 31 -257 -4 -64 -34
-96 -62 -130 -114 -15 -24 -31 -43 -35 -43 -38 0 -292 59 -385 89 -675 218
-654 678 55 1210 139 105 503 341 525 341 1 0 40 21 86 47 83 45 425 217 485
243 28 12 34 22 48 81 19 78 19 89 6 89 -18 0 -259 -109 -465 -211 -1106 -546
-1626 -1077 -1471 -1505 103 -282 460 -469 1049 -549 47 -6 47 -7 78 -73 60
-133 142 -187 284 -187 74 0 97 4 132 23 64 34 108 76 139 135 l28 54 325 6
c294 6 501 18 811 47 177 16 313 30 355 35 455 54 762 103 1195 192 458 93
798 176 1250 304 280 80 815 251 975 312 22 9 103 39 180 67 181 67 433 166
513 202 34 15 65 28 67 28 2 0 34 14 70 30 36 17 67 30 69 30 8 0 161 72 346
163 548 268 956 534 1216 792 239 238 332 417 322 621 -17 325 -360 554 -978
653 -36 5 -83 13 -105 16 -207 34 -856 56 -1104 38 l-114 -8 35 -39 35 -39
269 2 c970 8 1570 -168 1685 -494 112 -319 -254 -736 -1046 -1190 -126 -72
-522 -275 -536 -275 -5 0 -9 51 -9 113 0 1073 -658 2054 -1664 2482 -378 160
-884 236 -1291 194z m345 -329 c158 -53 255 -174 236 -293 -22 -137 -167 -283
-378 -381 -347 -162 -721 -197 -900 -84 -161 102 -154 287 18 476 139 153 362
256 651 302 98 15 298 4 373 -20z m870 -241 c249 -68 625 -345 757 -557 42
-67 48 -84 48 -130 0 -70 -40 -112 -108 -112 -118 1 -457 197 -693 402 -151
130 -224 234 -224 318 0 97 67 122 220 79z m-359 -513 c12 -13 32 -27 45 -30
13 -4 24 -11 24 -16 0 -6 6 -10 14 -10 13 0 37 -19 106 -84 19 -18 60 -49 90
-70 30 -21 73 -53 95 -71 43 -37 118 -94 144 -110 9 -5 26 -20 39 -32 12 -13
27 -23 32 -23 6 0 10 -6 10 -13 0 -7 11 -24 25 -39 38 -41 64 -94 58 -117 -3
-12 -1 -27 5 -34 16 -19 14 -211 -3 -352 -11 -87 -12 -147 -6 -220 5 -55 6
-105 4 -112 -3 -6 2 -22 10 -35 8 -13 18 -37 22 -55 3 -17 19 -45 36 -62 16
-17 29 -35 29 -41 0 -6 4 -18 8 -28 58 -119 88 -172 98 -172 6 0 14 -21 18
-47 3 -27 12 -60 20 -74 17 -33 3 -118 -25 -148 -11 -11 -19 -24 -19 -30 0
-19 -99 -71 -155 -82 -136 -25 -185 -17 -213 35 -22 42 -28 192 -11 253 9 31
14 114 15 233 1 167 0 187 -17 209 -11 13 -19 33 -19 45 0 12 -9 32 -20 44
-11 12 -20 25 -20 30 0 5 -8 17 -19 26 -10 9 -21 29 -24 44 -3 15 -18 42 -34
59 -15 17 -40 47 -55 65 -95 114 -212 220 -285 256 -32 17 -65 37 -72 46 -8 9
-19 16 -26 16 -7 0 -18 7 -25 15 -7 8 -20 15 -29 15 -9 0 -56 13 -106 29 -108
36 -316 54 -397 35 -13 -3 -42 -10 -66 -15 -23 -4 -51 -13 -61 -19 -11 -5 -31
-10 -45 -10 -25 0 -106 -28 -116 -40 -12 -15 -102 -70 -115 -70 -8 0 -28 -13
-45 -30 -17 -16 -42 -37 -55 -46 -14 -9 -25 -22 -25 -29 0 -7 -20 -28 -45 -48
-56 -43 -115 -115 -115 -140 0 -11 -8 -21 -19 -24 -25 -6 -53 -59 -89 -168
-51 -150 -57 -190 -57 -360 0 -196 10 -282 41 -330 6 -11 15 -35 19 -53 8 -40
53 -122 70 -129 7 -2 19 -19 26 -36 14 -36 69 -120 81 -125 4 -2 8 -9 8 -16 0
-18 24 -66 33 -66 4 0 7 -13 7 -30 0 -16 3 -30 8 -30 4 0 13 -10 21 -22 11
-18 11 -22 -3 -30 -8 -5 -23 -25 -32 -45 -18 -36 -98 -83 -142 -83 -10 0 -22
-4 -27 -9 -39 -37 -227 -28 -273 13 -42 37 -92 90 -93 98 -1 4 -2 11 -4 16 -1
4 -5 25 -10 47 -4 22 -12 45 -17 51 -5 7 -13 45 -18 85 -22 164 -46 272 -70
304 -4 6 -10 29 -13 53 -3 24 -12 51 -21 61 -9 10 -16 25 -16 34 0 9 -5 17
-10 17 -6 0 -20 21 -31 47 -11 26 -23 50 -27 53 -10 7 -42 57 -70 109 -14 24
-34 55 -47 69 -13 13 -35 56 -50 96 -15 39 -31 79 -36 88 -13 26 -11 40 16
102 14 31 25 65 25 75 0 10 11 33 25 52 13 19 42 61 64 94 22 33 52 74 65 90
14 17 26 38 26 47 0 9 5 20 10 23 6 3 27 41 48 83 20 42 39 79 42 82 10 10 70
138 70 149 0 6 4 11 8 11 4 0 25 33 47 73 44 80 99 140 132 142 12 1 28 6 35
12 22 18 76 22 306 25 215 2 292 11 366 43 10 4 32 9 50 9 17 1 60 15 96 32
36 17 79 34 95 38 44 11 139 57 148 72 4 7 24 18 45 24 20 7 42 19 49 27 6 8
17 15 25 16 7 2 24 10 37 19 13 10 28 15 33 12 4 -3 8 -1 8 4 0 5 13 15 30 22
16 7 41 23 55 36 23 22 35 24 116 24 82 0 91 -2 110 -24z m-2013 -52 c52 -36
64 -103 37 -219 -69 -295 -397 -821 -595 -954 -108 -72 -175 -51 -200 62 -23
100 18 243 140 492 139 285 348 563 462 615 52 24 125 26 156 4z m3385 -547
c226 -111 412 -487 412 -832 0 -215 -64 -354 -191 -416 -179 -86 -453 162
-565 514 -42 130 -51 191 -51 322 0 179 26 276 97 371 59 78 186 95 298 41z
m-1710 -343 c481 -124 722 -702 456 -1091 -152 -222 -389 -340 -663 -331 -195
7 -318 61 -456 198 -86 86 -131 157 -173 273 -28 76 -30 93 -31 222 -1 144 8
199 45 282 10 24 19 47 19 52 0 20 101 161 153 211 86 85 213 155 332 185 73
19 245 18 318 -1z m-2143 -708 c189 -95 340 -348 409 -684 25 -123 5 -306 -47
-417 -96 -204 -269 -226 -454 -57 -140 130 -257 382 -298 642 -22 141 -2 291
52 398 71 142 201 187 338 118z"/>
<path d="M5310 8624 c-397 -43 -686 -201 -805 -441 -39 -78 -41 -172 -5 -224
36 -51 58 -68 130 -103 61 -29 74 -31 196 -34 170 -5 388 37 539 104 135 59
171 78 236 121 249 169 294 359 115 494 -80 60 -265 98 -406 83z"/>
<path d="M6306 8359 c-63 -49 -23 -143 124 -290 216 -217 621 -469 753 -469
45 0 80 40 80 91 -1 178 -480 582 -794 669 -93 25 -130 25 -163 -1z"/>
<path d="M3975 7796 c-232 -105 -654 -861 -605 -1083 29 -127 95 -127 229 1
224 214 461 621 526 901 35 151 -33 233 -150 181z"/>
<path d="M7285 7266 c-164 -76 -218 -424 -114 -727 94 -273 253 -466 419 -510
106 -27 202 43 260 192 79 198 26 521 -128 784 -62 105 -162 207 -238 242 -69
32 -155 40 -199 19z"/>
<path d="M5450 6897 c-316 -95 -514 -359 -515 -687 0 -135 13 -196 65 -305
198 -411 718 -512 1083 -210 388 321 299 917 -172 1160 -129 66 -321 83 -461
42z m260 -360 c50 -6 93 -35 142 -98 24 -30 46 -56 51 -57 21 -10 57 -112 57
-162 0 -51 -40 -160 -58 -160 -4 0 -15 -15 -25 -32 -50 -92 -87 -112 -236
-130 -144 -17 -239 38 -306 177 -16 33 -33 62 -37 63 -10 5 -11 159 0 164 4 2
16 19 26 38 10 19 28 52 39 73 21 37 96 94 136 102 12 2 27 7 33 11 7 4 28 11
48 14 33 6 49 6 130 -3z"/>
<path d="M3457 6216 c-231 -85 -258 -506 -57 -908 151 -302 378 -423 521 -277
65 66 119 236 119 374 0 81 -39 247 -89 380 -109 290 -337 489 -494 431z"/>
<path d="M6575 4801 c-297 -48 -633 -247 -721 -427 -74 -151 -8 -286 164 -341
87 -27 326 -24 447 6 126 32 284 95 354 142 127 84 242 233 271 351 26 102
-37 192 -170 242 -82 31 -243 43 -345 27z"/>
<path d="M4407 4380 c-89 -27 -73 -93 46 -192 134 -110 268 -176 507 -250 207
-63 407 -82 477 -45 122 65 57 175 -173 290 -156 79 -271 119 -484 171 -140
34 -308 45 -373 26z"/>
<path d="M6395 2769 c-150 -5 -174 -8 -205 -27 -19 -12 -42 -22 -51 -22 -9 0
-34 -28 -55 -62 l-39 -63 -5 -640 c-5 -675 -2 -763 30 -807 11 -15 20 -31 20
-35 1 -19 51 -63 71 -63 12 0 31 -8 41 -17 28 -25 243 -37 416 -23 223 19 247
22 257 30 6 4 28 13 50 20 22 7 56 22 75 34 125 77 112 75 167 26 64 -56 86
-66 164 -73 61 -6 70 -4 110 22 60 39 82 65 121 145 18 38 44 77 58 87 51 37
278 53 348 24 39 -17 82 -52 82 -68 0 -6 11 -25 25 -43 14 -18 25 -40 25 -49
0 -21 63 -85 84 -85 9 0 19 -6 22 -14 7 -19 86 -44 91 -29 3 8 15 10 33 7 15
-4 53 1 83 10 52 15 58 15 121 -4 84 -26 167 -20 225 18 22 14 39 28 39 31 -1
3 9 29 22 56 22 46 24 68 31 275 6 216 15 280 40 280 6 0 13 -9 16 -20 3 -10
14 -22 24 -25 10 -4 19 -12 19 -19 0 -7 14 -33 32 -57 17 -23 42 -70 55 -103
13 -33 28 -65 33 -70 6 -6 10 -17 10 -27 0 -9 9 -28 20 -42 11 -14 20 -34 20
-45 0 -11 11 -33 23 -49 13 -15 34 -49 47 -76 22 -44 76 -97 98 -97 5 0 16 -9
23 -20 10 -16 28 -22 69 -26 79 -7 92 -6 100 6 4 7 18 11 31 10 39 -3 49 -1
49 13 0 8 25 39 55 70 59 60 68 62 116 22 15 -12 40 -27 58 -34 17 -8 31 -17
31 -22 0 -17 124 -68 204 -83 87 -18 238 -20 304 -6 23 6 60 14 82 19 22 5 49
16 59 25 9 9 24 16 31 16 23 0 120 70 134 98 8 15 26 38 40 51 14 14 26 31 26
38 0 8 11 33 24 56 53 96 64 500 17 622 -27 69 -42 143 -30 151 19 11 41 74
49 139 9 71 -10 218 -31 239 -5 6 -9 15 -9 22 0 19 -73 124 -86 124 -7 0 -16
9 -19 20 -6 20 -41 46 -122 91 -84 47 -327 74 -435 49 -24 -5 -70 -16 -103
-24 -40 -9 -86 -31 -134 -62 -41 -27 -90 -59 -110 -71 l-36 -22 -67 70 c-66
69 -68 70 -134 80 -63 9 -69 8 -113 -18 -45 -26 -80 -60 -81 -77 0 -5 -7 -17
-16 -27 -13 -15 -18 -55 -24 -211 -8 -187 -20 -258 -43 -258 -16 1 -63 68
-112 160 -22 41 -46 84 -52 95 -6 11 -30 58 -53 104 -54 111 -132 211 -164
211 -6 0 -23 6 -38 14 -74 39 -152 30 -238 -25 -36 -24 -60 -47 -60 -57 0 -10
-4 -22 -9 -27 -23 -24 -31 -146 -31 -456 0 -312 -10 -449 -36 -490 -7 -12 -94
155 -94 180 0 7 -9 28 -19 45 -11 17 -22 52 -25 77 -3 26 -15 66 -26 90 -11
24 -20 53 -20 64 0 11 -21 81 -46 155 -25 74 -52 158 -59 187 -23 90 -80 194
-128 235 -51 43 -164 69 -215 50 -15 -6 -40 -13 -56 -17 -72 -16 -166 -118
-166 -181 0 -9 -6 -28 -14 -42 -19 -38 -64 -179 -72 -227 -4 -22 -14 -56 -22
-75 -8 -19 -23 -66 -33 -105 -18 -72 -23 -89 -70 -215 -15 -41 -33 -94 -40
-117 -24 -83 -66 -93 -98 -23 -10 22 -21 37 -24 33 -4 -3 -7 5 -7 19 0 14 -6
38 -14 53 -27 52 -29 118 -7 207 29 119 30 281 2 384 -20 73 -104 189 -156
214 -25 12 -45 25 -45 30 0 12 -73 38 -152 54 -94 19 -192 22 -403 15z m1536
-148 c9 -9 151 -473 146 -478 -3 -2 -17 36 -31 84 -15 48 -45 147 -67 218 -60
195 -43 175 -153 175 l-94 0 -33 -105 c-18 -58 -34 -103 -36 -101 -3 3 14 67
54 198 7 25 192 33 214 9z m2397 11 c13 -4 -49 -7 -137 -7 -88 0 -153 3 -143
7 22 8 249 8 280 0z m-3871 -9 l-267 -3 2 -733 3 -732 270 1 c279 0 342 7 434
45 31 13 40 14 27 4 -60 -46 -184 -62 -498 -64 l-248 -2 0 746 0 745 273 -2
272 -3 -268 -2z m2567 -490 c246 -492 280 -563 272 -563 -2 0 -121 236 -265
525 l-261 525 -85 0 -85 0 0 -736 0 -736 23 6 c12 3 37 6 54 6 l33 0 3 533 2
532 3 -542 2 -543 -65 0 -65 0 0 745 0 745 93 0 92 0 249 -497z m496 -248 l0
-745 -80 0 c-44 0 -80 4 -80 9 0 6 33 9 73 8 l72 -1 3 732 2 732 -55 0 -55 0
0 -620 c0 -450 -3 -620 -11 -620 -7 0 -9 9 -5 23 3 12 6 293 6 625 l0 602 65
0 65 0 0 -745z m-2689 724 c89 -28 190 -105 189 -143 0 -6 -7 -2 -15 8 -58 76
-123 116 -222 135 -38 7 -42 9 -17 10 17 0 46 -4 65 -10z m3138 -10 c-75 -26
-159 -102 -190 -171 l-24 -53 0 -492 c0 -270 -4 -482 -8 -471 -4 12 -6 234 -5
493 l3 470 33 67 c45 92 155 177 227 177 11 -1 -5 -9 -36 -20z m481 -7 c134
-68 190 -172 190 -354 l0 -88 -70 0 -70 0 2 93 2 92 3 -87 4 -88 59 0 60 0 0
75 c0 190 -70 306 -220 363 -30 12 -46 21 -35 21 11 1 45 -12 75 -27z m-161
-48 c1 -1 -44 -2 -100 -1 -78 0 -92 2 -54 7 45 5 145 2 154 -6z m-3521 -19
c66 -20 116 -67 132 -125 17 -63 13 -253 -5 -293 -9 -18 -12 -23 -8 -12 12 35
15 258 4 296 -15 50 -45 85 -94 112 -39 20 -58 22 -254 25 l-213 4 0 -276 0
-276 168 -3 167 -3 -172 -2 -173 -2 0 285 0 285 198 0 c149 0 211 -4 250 -15z
m3600 -5 c72 -38 133 -115 132 -167 -1 -10 -10 4 -20 31 -25 64 -72 111 -135
136 -27 10 -42 19 -32 19 10 1 34 -8 55 -19z m-2503 -118 c20 -63 34 -116 32
-119 -3 -2 -20 43 -38 102 -30 98 -34 104 -46 83 -7 -13 -12 -18 -13 -11 0 16
20 67 24 62 3 -2 21 -55 41 -117z m2141 105 c-65 -42 -97 -87 -115 -164 -8
-33 -9 -34 -10 -10 -2 58 91 189 133 186 6 0 3 -6 -8 -12z m-1171 -266 c58
-117 104 -215 102 -218 -3 -2 -49 86 -103 197 -54 110 -101 200 -105 200 -4 0
-10 -10 -12 -22 -2 -13 -5 -3 -6 20 0 24 3 42 9 40 5 -1 57 -99 115 -217z
m-1789 44 l2 -130 -8 125 c-4 69 -11 136 -15 150 -6 23 -6 24 6 5 9 -13 14
-65 15 -150z m-360 73 c80 -54 80 -144 2 -201 -29 -22 -115 -39 -124 -25 -3 4
-16 8 -30 8 -45 0 -74 41 -74 105 0 99 40 145 126 145 42 0 61 -6 100 -32z
m3609 -6 c35 -32 43 -48 64 -129 22 -87 22 -94 7 -118 -18 -28 -84 -65 -116
-65 -30 0 -78 -27 -90 -50 -6 -11 -14 -18 -18 -16 -21 13 -35 -17 -40 -83 l-5
-71 55 -54 c29 -30 69 -61 88 -70 19 -8 42 -20 50 -25 8 -5 23 -12 32 -15 20
-6 33 -78 25 -139 -5 -33 -15 -51 -51 -84 -41 -40 -49 -43 -98 -43 -36 0 -69
8 -98 23 -65 32 -83 85 -80 232 2 61 1 178 -1 260 -10 418 15 484 181 484 50
0 59 -3 95 -37z m-2561 -136 c-14 -48 -29 -85 -31 -82 -2 2 8 43 23 90 14 48
29 85 31 82 2 -2 -8 -43 -23 -90z m2169 -831 c47 -104 135 -148 297 -149 87 0
97 -2 60 -9 -105 -19 -242 13 -304 71 -82 78 -81 70 -82 567 l0 440 5 -440 c5
-395 8 -444 24 -480z m-1969 799 c15 -47 25 -88 23 -90 -4 -4 -57 155 -57 170
0 21 11 -5 34 -80z m-909 -97 c-23 -56 -77 -103 -146 -128 l-62 -23 63 -21
c102 -34 202 -142 199 -217 0 -16 -4 -11 -13 17 -37 117 -108 176 -248 206
l-53 12 78 26 c99 33 150 75 174 142 10 28 19 44 21 37 1 -8 -4 -30 -13 -51z
m505 -124 c-28 -92 -53 -176 -56 -186 -3 -10 -8 -16 -11 -14 -2 3 14 65 37
139 22 73 48 157 56 186 9 29 18 51 21 48 3 -2 -18 -80 -47 -173z m620 -31
c29 -90 49 -166 47 -169 -5 -5 -12 14 -76 223 -39 124 -50 173 -31 129 5 -11
32 -94 60 -183z m-529 -79 c-45 -142 -81 -266 -81 -276 0 -9 -5 -17 -11 -17
-6 0 -8 8 -5 18 3 9 41 133 86 275 44 142 80 261 80 264 0 4 3 4 6 1 3 -3 -31
-122 -75 -265z m419 -1 c34 -107 60 -196 57 -199 -3 -2 -8 6 -12 19 -4 13 -31
100 -60 193 -30 94 -56 181 -59 195 -14 60 16 -25 74 -208z m955 66 c48 -102
54 -135 7 -42 -37 74 -62 134 -56 134 2 0 24 -42 49 -92z m-1147 -31 c60 -103
18 -193 -63 -131 -43 33 -44 55 -5 117 35 56 42 57 68 14z m2790 -224 c-3
-253 -3 -259 -29 -313 -14 -30 -38 -70 -54 -88 -27 -32 -119 -92 -140 -91 -5
0 8 9 30 21 59 30 131 104 157 162 22 49 23 61 23 301 l0 250 -192 2 -193 3 0
-40 0 -40 135 0 135 0 -2 -192 -3 -193 -2 188 -3 187 -140 0 c-155 0 -148 -4
-134 69 l7 31 204 0 204 0 -3 -257z m-4130 220 l-178 -3 -3 -323 -2 -322 -3
328 -2 327 183 -2 182 -3 -177 -2z m350 -53 c48 -34 68 -63 76 -105 l6 -30
-11 30 c-19 50 -56 91 -101 113 -24 12 -36 21 -27 22 9 0 35 -13 57 -30z
m2307 -260 c64 -128 114 -234 112 -237 -4 -3 -237 462 -237 474 0 15 16 -16
125 -237z m-1751 16 c-26 -86 -49 -154 -52 -152 -2 2 18 74 44 160 26 86 49
154 52 152 2 -2 -18 -74 -44 -160z m863 -81 c-2 -5 -16 31 -31 80 -15 50 -32
103 -37 119 -5 16 -9 34 -8 40 0 6 18 -43 40 -109 21 -66 38 -124 36 -130z
m-1582 206 c100 -46 127 -160 60 -258 -28 -42 -80 -63 -154 -63 -105 0 -141
39 -141 153 0 145 31 187 134 187 38 0 76 -7 101 -19z m244 -314 c-23 -84
-135 -160 -233 -156 -21 1 -13 4 24 10 106 18 171 66 199 148 6 19 12 93 13
165 l2 131 3 -128 c2 -74 -1 -145 -8 -170z m148 106 c-2 -32 -3 -8 -3 52 0 61
1 87 3 58 2 -29 2 -78 0 -110z m821 60 c-54 -2 -142 -2 -195 0 -54 1 -10 3 97
3 107 0 151 -2 98 -3z m1438 -74 c19 -39 33 -73 31 -75 -3 -3 -20 26 -38 63
-43 87 -42 83 -35 83 3 0 22 -32 42 -71z m-956 -337 c0 -10 -18 -12 -72 -10
-64 3 -73 5 -76 23 -2 12 0 16 5 9 10 -14 104 -26 120 -16 10 6 8 20 -6 62
-33 95 -81 255 -80 265 1 13 109 -316 109 -333z m-193 188 c23 -74 41 -139 40
-144 -2 -5 -20 44 -40 110 -21 65 -42 129 -47 141 l-9 23 -323 3 -323 2 329 0
330 0 43 -135z m-872 -46 c-33 -110 -45 -141 -45 -118 0 5 16 60 35 123 19 62
35 116 35 119 0 3 2 3 5 0 3 -3 -10 -59 -30 -124z m117 -29 l-38 -120 -67 -3
c-40 -2 -67 1 -67 7 0 6 26 9 62 8 l62 -2 13 35 c7 19 25 75 39 125 15 49 29
85 31 79 2 -5 -14 -63 -35 -129z m2388 3 c37 -45 140 -97 224 -114 43 -9 52
-12 29 -13 -118 -4 -293 117 -317 219 -4 15 2 8 14 -15 11 -23 34 -57 50 -77z
m624 54 c-29 -35 -102 -81 -133 -82 -8 0 13 14 47 31 41 20 68 42 83 65 12 19
24 33 27 29 3 -3 -8 -22 -24 -43z m-1126 -84 c17 -38 29 -68 26 -68 -5 0 -74
137 -74 147 0 16 20 -16 48 -79z m-2730 -5 c-38 -2 -98 -2 -135 0 -38 2 -7 3
67 3 74 0 105 -1 68 -3z"/>
  </g>
  
  <!-- Blue neon core with glow -->
  <g transform="translate(0,950) scale(0.1,-0.1)" fill="#00ccff" opacity="0.9" filter="url(#neon-glow)">
    <path d="M5280 9139 c-154 -11 -331 -41 -470 -80 -90 -26 -299 -96 -335 -113
-135 -62 -179 -85 -240 -126 -71 -48 -74 -50 -99 -50 -8 0 -37 -18 -65 -40
-28 -22 -53 -40 -56 -40 -3 0 -34 -20 -69 -45 -36 -25 -68 -45 -72 -45 -7 0
-53 -36 -106 -82 -17 -16 -41 -28 -53 -28 -13 0 -25 -7 -29 -15 -3 -8 -1 -15
5 -15 6 0 4 -7 -5 -15 -8 -8 -18 -15 -22 -15 -4 0 -20 -13 -36 -30 -15 -16
-34 -30 -41 -30 -14 0 -63 -60 -60 -72 2 -4 -6 -10 -17 -13 -11 -4 -32 -22
-46 -41 -15 -19 -31 -34 -36 -34 -10 0 -60 -55 -68 -76 -3 -7 -22 -30 -42 -53
-21 -22 -38 -44 -38 -49 0 -5 -18 -30 -40 -55 -22 -25 -40 -48 -40 -51 0 -4
-22 -36 -50 -72 -28 -36 -50 -71 -50 -77 0 -7 -12 -29 -26 -50 -14 -21 -41
-68 -61 -104 -19 -37 -52 -93 -74 -126 -21 -32 -39 -64 -39 -70 0 -7 -33 -45
-73 -85 -55 -55 -95 -83 -162 -117 -50 -25 -95 -45 -101 -45 -14 0 -218 -66
-258 -84 -17 -8 -56 -24 -86 -36 -77 -31 -160 -68 -195 -87 -16 -9 -95 -49
-175 -90 -80 -42 -152 -81 -160 -88 -8 -7 -31 -21 -50 -30 -19 -10 -37 -21
-40 -24 -3 -4 -34 -22 -70 -40 -36 -18 -72 -40 -81 -47 -8 -8 -21 -14 -27 -14
-6 0 -30 -15 -54 -33 -24 -18 -70 -50 -102 -71 -33 -22 -67 -47 -78 -58 -10
-10 -23 -18 -30 -18 -7 0 -21 -9 -33 -20 -11 -11 -38 -35 -61 -53 -83 -65
-254 -220 -255 -231 -1 -6 -1 -15 0 -19 1 -5 -2 -6 -7 -3 -10 6 -55 -39 -98
-99 -16 -22 -31 -42 -34 -45 -19 -16 -76 -114 -109 -184 -56 -121 -85 -241
-85 -361 0 -104 16 -208 38 -260 8 -16 17 -41 21 -55 4 -14 11 -27 15 -30 3
-3 27 -37 53 -77 53 -83 188 -222 247 -255 23 -13 63 -35 88 -50 43 -25 85
-46 167 -83 16 -7 71 -27 120 -45 50 -17 139 -49 198 -71 59 -21 112 -39 118
-39 6 0 25 -6 42 -14 18 -8 65 -26 105 -42 39 -15 72 -31 72 -36 0 -5 14 -7
31 -3 20 5 36 2 47 -8 20 -17 39 -23 154 -46 77 -16 99 -16 200 -5 62 7 149
22 193 33 44 11 148 33 230 48 131 24 176 27 355 27 l205 0 98 -42 c54 -23
125 -62 158 -87 32 -25 64 -45 69 -45 6 0 10 -4 10 -9 0 -6 13 -18 30 -28 17
-9 30 -22 30 -29 0 -6 18 -26 41 -45 22 -19 53 -46 67 -60 15 -14 56 -49 92
-77 36 -28 73 -58 82 -66 10 -9 29 -18 43 -22 14 -4 25 -13 25 -23 0 -17 50
-61 70 -61 5 0 10 -5 10 -11 0 -5 4 -8 9 -5 4 3 17 -4 27 -15 11 -12 41 -32
67 -45 26 -14 56 -33 66 -43 18 -18 57 -38 216 -111 99 -45 172 -75 230 -93
125 -39 225 -67 280 -76 33 -5 98 -17 145 -26 189 -34 514 -27 805 19 17 3 98
12 180 21 83 9 179 23 215 30 98 21 258 63 279 74 10 6 36 15 57 20 58 14 191
64 259 98 75 36 269 151 331 195 100 72 310 267 357 333 12 17 34 41 49 53 16
13 28 28 28 33 0 12 15 32 54 70 23 24 26 32 16 44 -10 12 -9 15 6 15 23 0 75
55 106 112 40 72 45 79 77 110 17 17 34 42 38 57 3 14 9 28 12 31 18 14 101
141 101 154 0 8 4 17 9 20 5 3 19 27 31 53 12 27 29 56 38 66 8 9 16 33 17 53
1 37 24 62 37 41 7 -10 13 36 11 81 -1 8 7 22 18 33 10 10 19 28 19 38 0 11 5
23 10 26 6 3 10 17 10 31 0 14 11 49 23 77 13 29 27 65 31 81 4 15 15 40 25
55 10 14 30 46 44 71 38 65 92 119 175 176 101 68 90 61 257 147 179 92 295
155 315 171 8 7 33 21 55 31 22 11 47 26 56 33 24 19 130 82 138 82 4 0 18 11
31 25 13 14 29 25 36 25 7 0 28 13 46 28 18 15 58 45 88 66 30 22 59 45 63 52
4 8 15 14 22 14 8 0 25 10 37 23 13 12 48 43 78 68 190 159 405 422 447 546 9
26 25 62 35 80 11 18 23 58 29 90 5 32 14 81 19 108 20 91 -9 294 -51 365 -5
8 -12 22 -15 30 -3 8 -10 24 -17 35 -6 11 -19 37 -29 58 -10 20 -23 37 -28 37
-5 0 -16 12 -23 26 -40 76 -261 232 -422 299 -38 16 -74 32 -80 36 -12 8 -317
84 -400 99 -33 6 -98 15 -145 20 -47 5 -96 11 -110 14 -134 29 -721 46 -935
26 -277 -25 -366 -25 -457 0 -46 12 -101 32 -123 44 -86 48 -109 62 -154 96
-25 20 -60 42 -78 49 -18 7 -47 28 -65 47 -18 19 -37 34 -42 34 -5 0 -42 20
-83 45 -40 25 -77 45 -81 45 -4 0 -43 17 -87 39 -105 51 -206 91 -340 135 -60
20 -124 40 -141 46 -17 5 -49 10 -71 10 -23 0 -43 4 -45 8 -4 11 -265 74 -307
74 -20 0 -54 6 -76 14 -50 16 -92 22 -241 29 -65 3 -139 7 -164 9 -25 2 -101
-1 -170 -5z m420 -169 c35 -4 -32 -7 -180 -7 -129 0 -212 3 -185 7 69 9 298
10 365 0z m-485 -20 c-16 -4 -48 -8 -70 -8 -38 0 -38 1 -10 8 17 4 48 8 70 8
38 0 38 -1 10 -8z m690 0 l30 -8 -35 0 c-19 -1 -53 3 -75 7 l-40 9 45 0 c25 0
59 -4 75 -8z m-816 -14 c-8 -8 -180 -38 -186 -33 -3 3 12 9 33 12 22 4 53 11
69 15 31 9 91 13 84 6z m931 -6 l25 -8 -25 0 c-14 0 -36 4 -50 8 l-25 8 25 0
c14 0 36 -4 50 -8z m105 -20 c18 -8 18 -9 -5 -8 -14 0 -36 4 -50 8 -24 8 -24
8 5 8 17 0 39 -3 50 -8z m-1250 -20 c-11 -5 -29 -9 -40 -9 l-20 0 20 9 c11 5
29 9 40 9 l20 0 -20 -9z m1330 0 l20 -9 -20 0 c-11 0 -29 4 -40 9 l-20 9 20 0
c11 0 29 -4 40 -9z m-1410 -20 c-11 -5 -27 -9 -35 -9 -13 -1 -13 0 0 9 8 5 24
9 35 9 l20 0 -20 -9z m1575 -29 c122 -42 212 -79 194 -80 -6 -1 -29 7 -50 16
-22 9 -95 36 -164 59 -69 23 -118 43 -110 43 8 1 67 -17 130 -38z m-1630 15
c0 -5 -103 -36 -117 -35 -4 0 12 8 37 19 43 17 80 25 80 16z m-130 -40 c0 -2
-42 -20 -92 -40 -51 -20 -129 -54 -173 -75 -44 -22 -82 -38 -84 -35 -4 4 171
89 264 127 58 24 85 32 85 23z m2036 -83 c30 -14 52 -28 51 -30 -5 -4 -61 20
-97 42 -41 24 -13 17 46 -12z m152 -75 c502 -271 898 -679 1153 -1188 59 -118
150 -338 148 -362 -1 -16 -12 11 -60 137 -38 103 -133 296 -199 406 -249 412
-624 772 -1030 987 -47 25 -89 49 -94 53 -21 19 9 7 82 -33z m-2548 -2 c0 -2
-28 -21 -62 -41 -169 -97 -311 -201 -449 -327 -47 -43 -90 -78 -94 -78 -8 0 6
14 116 114 112 101 246 199 404 292 67 41 85 49 85 40z m1119 -20 c-2 -2 -40
-6 -84 -9 -48 -3 -70 -2 -55 3 24 8 148 14 139 6z m224 -16 c52 -15 41 -23
-14 -10 -24 6 -64 15 -89 20 l-45 10 55 -5 c30 -2 72 -9 93 -15z m-423 -10
c-14 -4 -36 -8 -50 -8 -23 -1 -23 0 -5 8 11 5 34 8 50 8 29 0 29 0 5 -8z m-90
-20 c-8 -5 -24 -10 -35 -10 -17 0 -17 2 -5 10 8 5 24 10 35 10 17 0 17 -2 5
-10z m608 -10 c39 -21 82 -54 82 -64 0 -3 -22 10 -49 29 -26 19 -53 35 -59 35
-6 0 -14 5 -17 10 -9 15 1 12 43 -10z m-683 -10 c-11 -4 -56 -22 -100 -39 -44
-18 -110 -49 -146 -71 -125 -74 -252 -225 -285 -338 -14 -46 -14 -46 -9 -8 9
81 104 218 207 299 83 65 291 167 338 166 10 0 8 -3 -5 -9z m821 -128 c18 -44
18 -130 -1 -175 -24 -57 -115 -163 -185 -213 -63 -46 -185 -114 -205 -114 -5
1 26 20 70 43 207 108 325 246 325 377 0 43 -6 64 -25 92 -29 42 -32 56 -9 38
8 -8 22 -29 30 -48z m584 -52 c19 -6 10 -8 -36 -9 -83 -1 -98 -19 -95 -108 1
-19 19 -58 46 -100 40 -61 41 -64 11 -30 -44 49 -76 117 -76 159 1 71 72 113
150 88z m85 -20 c25 -11 -1 -11 -35 0 -20 6 -21 8 -5 8 11 0 29 -3 40 -8z
m112 -45 c42 -19 74 -37 71 -40 -3 -3 -31 8 -64 25 -32 16 -64 30 -71 30 -6 0
-15 5 -18 10 -10 16 1 12 82 -25z m-1372 -2 c49 -8 62 -20 68 -65 2 -20 7 -40
10 -45 7 -12 -20 -53 -35 -53 -6 0 -26 -13 -45 -30 -18 -16 -43 -30 -53 -30
-11 0 -20 -4 -20 -9 0 -5 -14 -13 -32 -16 -24 -6 -46 0 -98 25 -65 31 -66 33
-69 74 -1 37 3 46 47 89 27 26 60 50 75 52 14 3 36 9 49 15 13 5 32 7 43 5 11
-3 38 -8 60 -12z m1548 -94 c90 -56 183 -125 237 -177 19 -19 -1 -6 -45 29
-66 52 -161 117 -271 186 -10 6 -16 12 -11 12 4 1 44 -22 90 -50z m1480 -6
c-13 -2 -35 -2 -50 0 -16 2 -5 4 22 4 28 0 40 -2 28 -4z m-303 -7 c-3 -2 -37
-6 -75 -7 -110 -4 -110 -4 -68 -56 l37 -45 200 4 c111 3 253 1 316 -2 82 -5
24 -7 -200 -8 l-316 -2 -48 49 c-27 27 -46 53 -42 59 3 5 49 10 103 11 53 1
95 0 93 -3z m770 -6 l65 -7 -70 0 c-38 0 -101 3 -140 7 l-70 7 75 0 c41 0 104
-3 140 -7z m-5146 -72 c-138 -146 -272 -329 -385 -526 -28 -51 -54 -90 -56
-88 -4 3 5 19 56 109 49 85 70 119 135 212 83 119 132 180 204 256 29 31 60
66 68 78 8 11 20 21 26 21 6 0 -16 -28 -48 -62z m5351 53 l40 -9 -40 0 c-22
-1 -58 3 -80 7 l-40 9 40 0 c22 1 58 -3 80 -7z m196 -27 c49 -9 88 -19 85 -21
-4 -5 -101 9 -191 27 -33 6 -35 8 -11 9 15 1 68 -6 117 -15z m164 -34 c18 -8
18 -9 -5 -9 -14 0 -34 4 -45 9 -18 8 -18 9 5 9 14 0 34 -4 45 -9z m85 -20 c12
-8 12 -10 -5 -9 -11 0 -29 4 -40 9 -18 8 -18 9 5 9 14 0 32 -4 40 -9z m-660
-19 l45 -8 -45 -1 c-25 0 -74 4 -110 8 l-65 7 65 1 c36 0 85 -3 110 -7z m800
-22 c121 -39 274 -115 350 -174 33 -26 60 -49 60 -51 0 -3 -12 4 -27 16 -115
89 -236 150 -408 206 -55 18 -93 33 -85 33 8 1 58 -13 110 -30z m-3446 2 c3
-4 19 -11 35 -14 17 -4 48 -22 69 -42 22 -19 42 -35 46 -35 3 0 23 -17 44 -37
64 -63 161 -142 292 -237 41 -30 86 -64 100 -76 14 -13 39 -28 55 -35 17 -7
44 -28 60 -47 17 -18 46 -47 65 -65 87 -80 115 -130 129 -225 15 -101 17 -192
7 -333 -6 -95 -4 -135 8 -193 9 -40 16 -88 16 -106 0 -18 6 -52 14 -77 8 -24
17 -57 21 -72 4 -21 10 -27 22 -23 11 5 14 2 9 -10 -3 -8 3 -35 14 -59 11 -24
20 -48 20 -53 0 -9 45 -109 60 -132 11 -16 33 -64 57 -119 7 -18 17 -84 20
-145 5 -104 4 -112 -16 -130 -11 -11 -21 -26 -21 -35 0 -9 -22 -34 -50 -56
-27 -22 -49 -45 -50 -52 0 -6 -15 -15 -32 -18 -18 -4 -47 -16 -64 -26 -17 -10
-41 -19 -53 -19 -12 0 -24 -7 -27 -15 -3 -8 -16 -14 -27 -13 -12 0 -68 -11
-124 -26 -56 -14 -123 -26 -148 -26 -73 0 -156 28 -191 64 -51 51 -57 69 -44
131 6 30 8 75 5 100 -5 29 -3 50 4 59 7 8 11 18 10 22 -1 5 1 23 5 39 4 17 15
57 23 90 24 96 18 309 -11 397 -13 39 -29 75 -35 81 -6 6 -11 21 -11 33 0 36
-27 89 -63 125 -19 19 -44 53 -56 77 -12 23 -28 42 -35 42 -8 0 -34 23 -59 51
-30 34 -54 51 -71 53 -18 1 -24 5 -21 16 5 17 -41 50 -69 50 -9 0 -19 6 -22
14 -3 8 -17 18 -32 22 -15 4 -29 8 -32 9 -3 1 -18 5 -35 9 -16 4 -37 10 -45
13 -41 16 -157 33 -223 33 -108 0 -330 -59 -413 -111 -17 -10 -37 -19 -43 -19
-20 0 -43 -29 -39 -48 4 -12 -2 -17 -18 -18 -33 -2 -83 -52 -77 -75 6 -20 -21
-27 -32 -9 -3 6 -10 10 -16 10 -5 0 -9 -4 -9 -10 0 -5 7 -10 15 -10 20 0 19
-13 -2 -32 -81 -73 -85 -79 -79 -102 4 -17 -2 -31 -24 -55 -22 -22 -30 -41
-30 -65 0 -19 -6 -47 -12 -62 l-13 -27 -6 24 c-5 16 -7 6 -8 -31 -1 -30 -6
-93 -11 -140 -11 -91 5 -280 23 -277 5 1 11 -9 12 -23 2 -14 10 -45 19 -69 10
-24 15 -50 12 -57 -3 -8 4 -18 14 -24 11 -6 20 -18 20 -28 0 -9 19 -39 43 -65
23 -26 56 -64 72 -83 17 -20 43 -50 59 -67 36 -41 112 -157 129 -199 16 -41 6
-130 -17 -153 -9 -9 -16 -20 -16 -25 0 -32 -127 -106 -223 -130 -40 -10 -85
-23 -100 -29 -16 -6 -41 -11 -57 -11 -48 0 -132 -23 -118 -32 10 -6 10 -8 0
-8 -7 0 -20 7 -28 15 -11 11 -38 15 -102 15 -106 0 -152 20 -232 100 -48 48
-60 68 -80 131 -13 41 -27 79 -31 84 -4 6 -13 45 -20 88 -7 42 -16 77 -20 77
-4 0 -4 29 -2 64 4 41 2 66 -6 70 -7 5 -11 -3 -11 -24 0 -52 -17 -24 -23 37
-16 152 -20 173 -32 173 -13 0 -23 20 -46 95 -7 22 -19 47 -26 56 -7 8 -13 20
-13 26 0 5 -11 22 -24 36 -14 15 -28 37 -32 49 -19 63 -88 163 -106 152 -13
-8 -22 26 -9 39 15 15 14 27 -3 27 -21 0 -48 67 -53 134 -6 67 13 148 45 194
18 25 30 53 32 70 1 4 9 16 19 27 10 11 21 29 25 39 3 10 25 44 47 75 64 90
139 209 139 221 0 17 50 100 61 100 4 0 13 19 20 42 6 24 19 54 28 68 9 14 43
79 75 145 32 66 66 127 75 136 9 9 30 32 48 52 18 20 47 42 65 50 43 19 207
36 278 28 47 -5 109 -3 335 12 22 2 45 6 50 9 6 3 35 11 65 19 30 7 58 18 61
23 8 11 87 25 147 25 39 1 44 4 54 31 5 17 15 29 22 28 15 -3 106 33 106 42 0
4 21 13 48 21 26 7 60 25 75 41 16 15 35 28 43 28 8 0 17 7 20 15 4 8 11 15
18 15 6 0 34 15 62 34 28 19 67 39 85 44 43 13 146 15 153 3z m2831 -1 c28 -7
28 -8 -10 -8 -22 0 -53 4 -70 8 -28 7 -28 8 10 8 22 0 54 -4 70 -8z m-2450
-40 c31 -32 120 -103 245 -194 89 -66 266 -168 359 -207 36 -16 59 -29 51 -29
-23 0 -204 90 -298 149 -147 90 -427 310 -396 311 5 0 23 -14 39 -30z m2585
20 c24 -8 24 -8 -5 -8 -16 0 -41 4 -55 8 -24 8 -24 8 5 8 17 0 41 -4 55 -8z
m-4507 -137 c24 -23 59 -47 78 -55 19 -9 45 -20 59 -26 16 -7 19 -11 9 -11
-27 -1 -81 25 -130 63 -47 35 -90 104 -88 142 0 10 7 -2 15 -27 9 -31 28 -60
57 -86z m4670 102 c53 -14 123 -34 154 -45 32 -11 59 -20 62 -20 2 0 2 -2 -1
-5 -3 -3 -25 2 -49 11 -24 8 -102 30 -174 49 -71 18 -121 34 -110 34 11 1 64
-10 118 -24z m-2097 -37 c102 -112 175 -223 174 -265 -1 -10 -7 -1 -15 20 -19
56 -80 143 -148 215 -33 34 -56 62 -50 62 5 0 23 -15 39 -32z m-1686 -43 c0
-7 -70 -35 -84 -34 -6 0 7 9 29 19 42 20 55 23 55 15z m4045 -5 c3 -5 -1 -10
-9 -10 -8 0 -18 5 -21 10 -3 6 1 10 9 10 8 0 18 -4 21 -10z m84 -42 c87 -49
147 -95 183 -141 28 -36 24 -34 -32 19 -36 33 -100 80 -142 103 -43 24 -78 45
-78 47 0 9 15 3 69 -28z m-4234 4 c-11 -10 -102 -38 -150 -47 -41 -8 -9 8 70
33 67 22 94 26 80 14z m3335 -22 c91 -10 287 -38 315 -44 11 -3 54 -13 95 -22
89 -20 214 -72 274 -114 105 -71 157 -154 158 -250 1 -48 -6 -73 -34 -132 -20
-40 -44 -82 -54 -93 -11 -11 -37 -41 -58 -67 -21 -27 -45 -48 -52 -48 -8 0
-14 -4 -14 -9 0 -8 -79 -77 -165 -143 -45 -35 -112 -81 -174 -118 -40 -25 -93
-57 -117 -72 -25 -15 -57 -31 -72 -34 -15 -4 -32 -11 -38 -16 -7 -5 -40 -11
-75 -14 -50 -5 -77 -2 -123 15 -67 24 -103 57 -136 128 -13 26 -29 55 -36 63
-7 8 -19 42 -28 75 -8 33 -29 98 -47 145 -17 47 -34 97 -39 111 -4 15 -25 62
-45 105 -96 202 -110 359 -38 439 76 84 274 122 503 95z m-3540 -40 c-14 -4
-36 -8 -50 -8 l-25 0 25 8 c14 4 36 8 50 8 l25 0 -25 -8z m-1017 -11 c39 -18
57 -60 55 -131 l-1 -63 -6 70 c-7 80 -11 89 -55 116 -34 21 -31 25 7 8z m5931
-81 c22 -39 15 -32 -44 42 -39 49 -40 52 -9 23 19 -18 43 -47 53 -65z m-6044
65 c-61 -26 -116 -73 -186 -156 -64 -77 -214 -297 -214 -314 0 -10 -39 -61
-40 -51 -1 22 147 250 226 348 81 101 188 191 227 189 18 0 15 -4 -13 -16z
m1008 5 c-13 -3 -72 -6 -133 -6 -60 0 -120 3 -133 6 -13 4 47 7 133 7 86 0
146 -3 133 -7z m4812 -167 c0 -18 -4 -14 -24 29 l-17 35 20 -25 c11 -14 21
-31 21 -39z m279 -9 c12 -29 21 -63 20 -75 0 -12 -6 -1 -14 24 -7 26 -20 61
-29 79 -18 37 -20 49 -7 35 5 -6 19 -34 30 -63z m-2816 -4 c-28 -32 -75 -48
-109 -38 -27 8 -25 8 16 9 56 1 86 21 96 64 7 28 9 29 12 9 2 -13 -4 -33 -15
-44z m-3128 -55 c-9 -37 -18 -20 -9 19 4 18 9 27 11 20 3 -7 2 -24 -2 -39z
m5684 -8 c-1 -29 -1 -29 -9 -5 -4 14 -8 34 -9 45 -1 16 1 17 9 5 5 -8 9 -28 9
-45z m-5704 -55 c-4 -12 -9 -19 -12 -17 -3 3 -2 15 2 27 4 12 9 19 12 17 3 -3
2 -15 -2 -27z m5992 -67 c-2 -16 -4 -3 -4 27 0 30 2 43 4 28 2 -16 2 -40 0
-55z m-6983 28 c-9 -18 -18 -30 -21 -28 -2 3 3 19 12 37 9 18 18 30 21 28 2
-3 -3 -19 -12 -37z m961 -45 c-22 -52 -29 -40 -8 14 9 23 19 38 20 33 2 -5 -4
-26 -12 -47z m5724 -34 c-20 -59 -40 -105 -45 -100 -2 3 4 25 15 49 11 24 23
62 27 84 4 22 10 32 12 22 2 -9 -2 -34 -9 -55z m-6746 -55 c-20 -48 -39 -84
-41 -82 -5 4 11 45 48 128 12 27 24 47 26 44 2 -2 -12 -43 -33 -90z m7027 -4
c-10 -16 -11 -15 -6 7 3 14 6 32 7 40 1 8 4 5 6 -7 2 -12 -1 -30 -7 -40z
m-6085 -75 c-31 -62 -63 -120 -71 -128 -8 -8 15 44 53 117 37 73 69 130 71
128 2 -2 -22 -54 -53 -117z m6040 -44 c-20 -42 -39 -73 -42 -70 -3 3 4 20 15
38 10 18 28 55 38 82 10 27 20 44 22 38 2 -7 -13 -46 -33 -88z m-2635 76 c10
-7 -5 -10 -50 -9 -45 0 -59 3 -45 9 27 12 77 12 95 0z m-149 -31 c-19 -11 -42
-30 -52 -42 -10 -12 -18 -17 -19 -11 0 19 69 73 95 74 6 0 -5 -9 -24 -21z
m255 -10 c70 -44 138 -113 193 -194 48 -72 111 -196 111 -218 -1 -7 -14 16
-29 49 -94 202 -214 338 -336 382 -23 8 -25 11 -9 11 11 1 42 -13 70 -30z
m-4026 -85 c-27 -54 -50 -93 -50 -86 0 16 90 196 95 190 3 -2 -18 -49 -45
-104z m6245 69 c-48 -74 -67 -99 -129 -168 -122 -136 -446 -393 -611 -485 -22
-12 -58 -35 -80 -50 -45 -31 -125 -73 -125 -66 0 3 21 18 48 33 376 218 717
494 855 691 49 70 78 101 42 45z m-6733 -55 c-12 -29 -29 -77 -38 -106 -9 -29
-19 -51 -21 -48 -3 2 6 40 20 83 34 107 47 137 54 130 3 -4 -4 -30 -15 -59z
m4162 -34 c-9 -21 -23 -59 -30 -84 -9 -35 -12 -39 -13 -18 -1 25 48 153 56
145 2 -2 -4 -21 -13 -43z m2826 -33 c-5 -11 -15 -23 -22 -27 -7 -5 -8 -2 -3 7
21 37 44 55 25 20z m-6126 -95 c-31 -47 -59 -84 -61 -82 -2 2 22 42 53 90 32
47 59 84 61 82 3 -2 -21 -43 -53 -90z m4270 -17 c34 -117 68 -284 64 -306 -3
-10 -8 5 -12 32 -6 41 -55 247 -82 345 -4 14 -4 22 0 19 3 -3 17 -44 30 -90z
m1782 14 c-77 -100 -282 -300 -294 -288 -3 3 -3 6 -1 8 36 24 215 198 265 258
76 92 96 106 30 22z m-6495 -4 c-11 -24 -20 -39 -20 -33 -1 16 29 87 35 82 2
-3 -4 -25 -15 -49z m-767 -31 l-7 -33 -8 30 c-6 20 -5 32 4 37 17 10 20 3 11
-34z m260 -90 c-16 -62 -30 -106 -32 -97 -1 9 9 59 23 111 14 53 25 99 25 104
0 4 3 5 6 1 3 -3 -7 -56 -22 -119z m4201 -35 c0 -86 -3 -145 -6 -132 -13 45
-9 289 5 289 0 0 1 -70 1 -157z m-4500 138 c-6 -5 -21 -12 -35 -15 l-25 -7 25
15 c28 17 50 21 35 7z m-90 -41 c-3 -5 -11 -10 -16 -10 -6 0 -29 -9 -51 -20
-23 -11 -44 -18 -46 -15 -5 5 95 53 111 54 5 1 5 -3 2 -9z m106 -57 c-9 -16
-10 -16 -11 -1 0 9 3 25 7 35 7 16 8 17 11 1 2 -10 -1 -25 -7 -35z m3084 38
c27 -5 -3 -7 -90 -7 -71 0 -119 3 -105 7 34 9 145 10 195 0z m-1933 -39 c-77
-108 -261 -286 -278 -269 -3 2 10 14 28 25 39 25 181 170 223 229 17 24 34 43
38 43 5 0 -1 -12 -11 -28z m1606 -11 c-180 -71 -312 -193 -391 -359 -34 -72
-48 -79 -18 -8 47 108 152 232 257 301 64 43 198 103 229 104 11 0 -24 -17
-77 -38z m422 29 c13 -9 13 -10 0 -9 -8 0 -24 4 -35 9 l-20 9 20 0 c11 0 27
-4 35 -9z m-3464 -41 c-32 -17 -60 -28 -63 -25 -6 5 94 54 112 55 6 0 -16 -14
-49 -30z m1029 -9 c-4 -17 -9 -29 -12 -26 -3 2 -2 19 2 36 4 17 9 29 12 26 3
-2 2 -19 -2 -36z m2520 20 c130 -56 282 -194 352 -317 19 -35 33 -66 30 -69
-2 -3 -17 19 -32 48 -70 135 -203 257 -359 329 -69 32 -62 40 9 9z m-3279 -55
c-3 -8 -22 -21 -42 -30 -50 -21 -57 -18 -12 6 24 12 40 29 45 47 5 20 8 23 11
9 2 -10 1 -25 -2 -32z m-420 -26 c-43 -22 -80 -38 -82 -36 -5 5 135 75 151 76
6 0 -25 -18 -69 -40z m1161 -66 c-2 -16 -4 -3 -4 27 0 30 2 43 4 28 2 -16 2
-40 0 -55z m-837 43 c0 -3 -95 -52 -212 -110 -116 -58 -206 -100 -200 -94 12
12 391 207 405 208 4 0 7 -2 7 -4z m5359 -136 c0 -8 -9 12 -20 45 -10 33 -18
67 -18 75 0 8 9 -12 20 -45 10 -33 18 -67 18 -75z m-5008 48 c-8 -28 -9 -30
-10 -8 -1 34 12 80 17 58 2 -9 -1 -31 -7 -50z m-816 43 c-6 -5 -50 -30 -100
-56 -312 -165 -596 -343 -762 -478 -40 -32 -73 -54 -73 -49 0 31 425 317 670
451 36 19 108 59 160 87 90 50 126 65 105 45z m3736 -46 c120 -57 211 -134
249 -209 11 -23 28 -54 38 -71 32 -54 54 -157 47 -222 -6 -61 -49 -185 -75
-216 -47 -58 -140 -147 -170 -162 -19 -10 -37 -21 -40 -25 -3 -4 -27 -15 -55
-26 -41 -15 -75 -19 -185 -18 -145 1 -202 15 -244 63 -11 11 -24 21 -31 21
-12 0 -125 109 -125 122 0 4 -18 49 -41 99 -41 91 -41 92 -37 193 4 97 7 110
47 176 5 8 17 32 25 52 18 41 122 158 141 158 7 0 20 9 31 21 70 77 304 102
425 44z m3800 11 c-42 -45 -333 -247 -426 -297 -64 -34 -31 -9 125 93 80 53
183 125 230 161 92 72 106 80 71 43z m-6169 -79 c13 -4 35 -4 48 -1 20 5 22 3
10 -5 -26 -19 -61 -12 -91 18 -16 16 -29 40 -29 53 0 18 5 14 19 -18 12 -27
27 -43 43 -47z m3745 -76 c19 -57 48 -131 64 -164 17 -32 25 -56 19 -52 -27
17 -131 291 -129 338 1 21 2 21 6 2 3 -11 20 -67 40 -124z m1051 29 l0 -45 -9
40 c-4 22 -8 56 -7 75 l0 35 8 -30 c4 -16 8 -50 8 -75z m-5363 13 c-3 -24 -9
-42 -12 -40 -3 3 -2 30 2 59 5 29 10 47 13 40 2 -7 1 -34 -3 -59z m5043 -63
l0 -45 -9 40 c-4 22 -8 56 -7 75 l0 35 8 -30 c4 -16 8 -50 8 -75z m-5868 0
c-14 -11 -29 -20 -33 -20 -5 0 -22 -9 -39 -21 -16 -12 -31 -19 -34 -16 -5 5
27 25 101 65 31 17 33 14 5 -8z m806 -282 c0 -145 -4 -238 -8 -208 -11 98 -6
470 7 470 1 0 2 -118 1 -262z m5403 34 c1 -98 -9 -97 144 -21 53 27 97 46 97
42 0 -8 -234 -123 -251 -123 -5 0 -8 67 -7 168 1 136 3 153 8 92 4 -41 8 -112
9 -158z m-6344 172 c-11 -9 -40 -27 -65 -42 -227 -132 -508 -348 -655 -504
-108 -116 -174 -216 -215 -328 -16 -43 -19 -47 -15 -20 7 50 66 164 127 245
71 96 226 247 358 348 92 71 147 109 275 192 83 54 159 104 170 111 28 18 44
17 20 -2z m6870 0 c-30 -23 -266 -147 -270 -142 -2 2 24 18 58 36 34 17 96 52
137 76 74 44 113 59 75 30z m-3815 -56 c-7 -29 -16 -64 -21 -78 -16 -52 -10
18 8 80 20 73 30 72 13 -2z m1369 -3 l0 -20 -9 20 c-5 11 -9 27 -9 35 -1 13 0
13 9 0 5 -8 9 -24 9 -35z m-3833 14 c52 -9 64 -16 105 -60 57 -61 76 -131 85
-315 5 -126 18 -245 49 -449 18 -124 19 -238 3 -283 -17 -47 -65 -97 -112
-116 -54 -22 -187 -21 -337 4 -138 24 -442 30 -479 10 -11 -6 -24 -9 -29 -6
-5 3 -33 8 -62 11 -237 23 -360 81 -422 198 -29 55 -29 172 0 232 89 189 395
442 821 679 171 95 257 117 378 95z m5399 -125 c-21 -74 -35 -108 -40 -102 -3
2 4 27 15 54 10 28 22 79 27 115 7 54 8 58 11 26 2 -21 -4 -62 -13 -93z m1235
102 c0 -7 -77 -54 -175 -106 -55 -29 -95 -48 -90 -43 6 6 35 24 65 40 30 17
87 49 125 71 73 43 75 44 75 38z m-2782 -91 c0 -38 -1 -39 -8 -10 -4 17 -8 44
-8 60 -1 25 1 27 8 10 5 -11 8 -38 8 -60z m954 -12 c12 -21 42 -61 65 -90 23
-29 36 -50 29 -47 -13 5 -126 155 -126 168 0 14 9 4 32 -31z m-3654 -64 c34
-17 62 -35 62 -39 0 -5 -16 2 -36 15 -76 51 -163 58 -241 20 -71 -36 -118
-108 -148 -230 -7 -27 -13 -40 -14 -27 -1 12 8 50 20 84 63 187 201 256 357
177z m5198 2 c-5 -8 -354 -184 -481 -241 -38 -18 -92 -43 -120 -55 -54 -25
-198 -86 -335 -142 -47 -19 -94 -38 -105 -43 -235 -97 -663 -249 -1005 -358
-203 -65 -442 -134 -447 -129 -2 3 22 13 54 22 229 65 692 215 938 303 519
188 880 341 1280 543 216 109 230 115 221 100z m-2506 -141 c-9 -22 -10 -20
-5 15 2 22 6 56 7 75 1 25 3 20 5 -15 2 -28 -1 -62 -7 -75z m-2546 28 c31 -35
56 -67 56 -72 0 -5 -1 -7 -3 -5 -2 2 -32 34 -67 72 -35 37 -58 67 -52 67 6 0
35 -28 66 -62z m4031 14 c-25 -38 -101 -99 -111 -89 -3 2 11 14 31 25 19 12
49 42 67 66 39 56 50 53 13 -2z m-6765 -31 c-36 -33 -67 -57 -69 -55 -6 6 112
113 124 113 6 0 -19 -26 -55 -58z m3888 -26 c0 -29 0 -29 -8 -5 -4 14 -8 41
-8 60 l0 35 8 -30 c4 -16 8 -43 8 -60z m2506 44 c15 -12 51 -35 79 -51 29 -16
41 -26 27 -22 -45 12 -169 93 -144 94 6 0 23 -10 38 -21z m-1128 -95 c-4 -14
-9 -24 -12 -21 -3 2 -2 17 2 31 3 15 9 25 11 22 3 -3 2 -17 -1 -32z m-5361
-14 c-26 -29 -39 -25 -13 5 12 14 24 23 26 20 3 -3 -3 -14 -13 -25z m6707 19
c-15 -5 -36 -6 -55 0 -29 8 -27 9 23 9 44 1 50 -1 32 -9z m-3753 -88 c18 -29
30 -58 28 -65 -2 -6 -11 5 -19 25 -9 19 -27 54 -42 77 -14 23 -26 45 -26 49 0
10 20 -20 59 -86z m2375 4 c-35 -84 -132 -202 -226 -275 -43 -33 -199 -110
-222 -109 -19 0 -18 2 4 11 161 67 214 101 307 196 50 51 84 97 109 148 39 77
56 95 28 29z m-5399 -7 c-76 -90 -120 -152 -161 -231 -24 -45 -43 -77 -44 -72
0 45 202 344 233 345 5 0 -8 -19 -28 -42z m4181 -134 c16 -20 38 -48 48 -63
l20 -26 -28 25 c-49 43 -146 199 -146 232 0 7 18 -20 39 -59 21 -40 51 -89 67
-109z m-2191 -49 c4 -27 5 -48 2 -45 -9 8 -37 181 -36 220 2 32 8 -1 34 -175z
m382 38 c-2 -27 -3 -5 -3 47 0 52 1 74 3 48 2 -27 2 -69 0 -95z m734 -49 c29
-81 49 -161 48 -187 -1 -13 -5 -6 -11 18 -10 42 -54 193 -65 223 -3 9 -3 14 1
11 3 -3 16 -33 27 -65z m-692 -188 c1 -5 -1 -7 -4 -4 -10 9 -35 119 -34 146 1
22 36 -110 38 -142z m2055 25 c83 -35 208 -53 314 -46 46 3 59 2 42 -4 -74
-26 -262 -3 -374 46 -60 26 -179 103 -192 124 -4 6 26 -11 65 -39 40 -28 105
-64 145 -81z m-2455 59 c0 -23 -1 -23 -9 -5 -5 11 -9 29 -9 40 -1 17 1 17 9 5
5 -8 9 -26 9 -40z m781 -10 c0 -27 -3 -50 -6 -50 -13 0 -32 28 -38 57 -7 31
-3 36 37 42 4 0 7 -21 7 -49z m4460 -62 c-55 -186 -126 -376 -136 -365 -2 2 9
35 25 73 28 68 76 214 108 329 9 33 18 55 20 48 2 -6 -5 -45 -17 -85z m-7469
11 c-6 -16 -10 -18 -10 -7 -1 22 12 55 16 42 2 -6 -1 -22 -6 -35z m2270 -89
c41 -139 43 -149 31 -130 -12 18 -72 223 -71 241 1 19 5 9 40 -111z m2859 60
c-8 -5 -26 -9 -40 -9 l-25 1 25 8 c14 4 32 8 40 9 13 1 13 0 0 -9z m-5144
-110 c0 -61 -4 -103 -7 -93 -13 32 -9 203 5 203 1 0 2 -50 2 -110z m2664 62
c0 -7 -4 -10 -10 -7 -5 3 -10 16 -10 28 0 18 2 19 10 7 5 -8 10 -21 10 -28z
m-2383 -74 c-2 -18 -4 -4 -4 32 0 36 2 50 4 33 2 -18 2 -48 0 -65z m3115 -56
c-9 -53 -10 -50 -10 48 0 92 1 99 9 57 6 -30 6 -71 1 -105z m-693 18 c0 -8 -9
3 -19 25 -10 22 -19 47 -19 55 0 8 9 -3 19 -25 10 -22 19 -47 19 -55z m4270
55 c30 -3 74 -18 98 -31 44 -26 51 -41 67 -134 6 -37 -26 -173 -47 -200 -21
-26 -37 -59 -37 -75 0 -9 -7 -18 -15 -21 -8 -4 -15 -10 -15 -16 0 -13 -110
-132 -152 -164 -25 -19 -169 -41 -208 -32 -46 11 -112 40 -128 55 -7 7 -18 13
-24 13 -18 0 -80 33 -106 57 -13 12 -42 30 -63 40 -21 10 -41 25 -44 35 -3 9
-13 19 -21 22 -8 3 -13 10 -10 15 4 5 -5 18 -19 29 -14 11 -25 29 -25 41 0 12
-4 21 -10 21 -19 0 -10 36 15 54 14 10 25 29 25 42 0 42 191 150 360 202 109
34 246 61 285 56 11 -1 44 -5 74 -9z m-6627 -178 c39 -61 132 -137 226 -184
40 -20 70 -38 68 -41 -12 -12 -177 89 -236 145 -65 61 -121 150 -119 190 0 10
7 0 15 -21 8 -22 28 -62 46 -89z m2394 51 c42 -83 123 -195 172 -239 25 -22
73 -53 106 -69 34 -16 55 -30 47 -30 -27 0 -130 63 -176 108 -52 52 -105 126
-153 215 -33 59 -36 67 -27 67 2 0 17 -24 31 -52z m-386 -33 c7 -22 35 -87 62
-144 26 -57 46 -106 43 -109 -3 -3 -21 30 -41 74 -19 43 -42 94 -50 111 -16
36 -44 112 -44 121 0 16 19 -18 30 -53z m-2297 -75 c54 -110 164 -209 324
-289 43 -22 71 -40 63 -41 -23 0 -185 94 -244 142 -28 23 -69 63 -91 89 -46
54 -105 164 -104 194 0 17 2 16 10 -5 6 -14 25 -54 42 -90z m3322 33 c-10 -40
-17 -20 -9 23 5 24 9 32 12 21 2 -10 1 -30 -3 -44z m2255 0 c-78 -25 -153 -44
-163 -40 -12 4 161 55 188 55 11 0 0 -7 -25 -15z m-2275 -63 c-4 -12 -9 -19
-12 -17 -3 3 -2 15 2 27 4 12 9 19 12 17 3 -3 2 -15 -2 -27z m2040 -1 c-33
-10 -67 -18 -75 -18 -21 1 90 37 115 37 11 0 -7 -8 -40 -19z m1911 -75 c-20
-42 -39 -75 -41 -72 -3 3 11 39 32 81 21 42 39 74 41 72 3 -2 -12 -39 -32 -81z
m-2008 51 c-9 -9 -282 -76 -298 -72 -8 1 48 19 125 38 136 35 184 45 173 34z
m-1972 -44 c-23 -44 -74 -100 -108 -117 -44 -23 -44 -11 0 14 39 21 67 54 96
110 10 19 20 32 22 29 3 -3 -2 -19 -10 -36z m-1951 -25 c-96 -24 -176 -80
-211 -148 -10 -18 -22 -28 -37 -27 -22 0 -22 0 -1 9 12 5 31 23 42 42 11 18
31 43 44 55 38 36 140 83 178 82 33 -1 32 -2 -15 -13z m150 4 l20 -9 -20 1
c-11 0 -33 4 -50 8 l-30 8 30 0 c17 0 39 -3 50 -8z m66 -30 l24 -21 -32 16
c-32 15 -42 25 -24 25 5 0 19 -9 32 -20z m3379 10 c-8 -5 -26 -9 -40 -9 -23 0
-23 1 -5 9 11 5 29 9 40 9 17 1 17 -1 5 -9z m-85 -20 c-11 -5 -31 -8 -45 -8
l-25 0 25 8 c14 4 34 8 45 8 l20 1 -20 -9z m-4169 -29 c27 -11 63 -23 79 -26
17 -4 24 -10 17 -12 -13 -5 -162 44 -162 53 0 8 18 4 66 -15z m989 -66 c19
-29 35 -59 35 -67 0 -7 -12 7 -26 32 -14 25 -42 62 -62 84 -31 32 -33 36 -10
21 15 -9 43 -41 63 -70z m3105 81 c0 -6 -151 -38 -156 -33 -3 3 23 12 58 20
66 15 98 20 98 13z m-2294 -98 c13 -26 24 -50 24 -53 0 -3 -26 -4 -57 -3 -57
2 -57 2 -10 5 46 4 59 17 38 39 -12 13 -51 83 -51 92 1 12 30 -30 56 -80z
m4744 73 c0 -5 -9 -19 -20 -32 l-21 -24 16 33 c15 31 25 41 25 23z m-2700 -32
c-41 -11 -82 -18 -90 -16 -18 4 104 35 140 35 14 0 -9 -8 -50 -19z m-3632 -20
c30 -6 51 -13 48 -16 -6 -6 -116 17 -136 29 -16 10 -16 10 88 -13z m2210 14
c-10 -2 -28 -2 -40 0 -13 2 -5 4 17 4 22 1 32 -1 23 -4z m1282 -23 c-14 -4
-36 -8 -50 -8 l-25 0 25 8 c14 4 36 8 50 8 l25 0 -25 -8z m2769 -61 c-130
-221 -362 -489 -579 -671 -115 -97 -370 -271 -370 -254 0 2 37 28 83 57 315
202 589 469 794 774 33 50 68 105 77 123 10 19 20 32 22 29 3 -2 -9 -29 -27
-58z m-6114 41 c29 -7 28 -8 -10 -8 -22 0 -49 3 -60 8 -17 7 -15 9 10 8 17 0
44 -4 60 -8z m3250 0 c-11 -5 -31 -9 -45 -9 -23 0 -23 1 -5 9 11 5 31 9 45 9
23 0 23 -1 5 -9z m-100 -20 c-16 -4 -41 -8 -55 -8 l-25 0 25 8 c14 4 39 8 55
8 l30 0 -30 -8z m-86 -14 c-8 -8 -199 -38 -212 -33 -6 2 11 8 38 12 28 4 64
11 80 15 32 9 101 13 94 6z m807 -6 c5 -5 31 -11 57 -14 26 -3 72 -17 102 -31
44 -22 55 -32 55 -51 0 -13 6 -34 13 -45 10 -17 10 -23 0 -26 -7 -3 -13 -11
-13 -19 0 -17 -18 -50 -42 -78 -10 -11 -18 -26 -18 -33 0 -7 -4 -13 -10 -13
-5 0 -10 -5 -10 -12 0 -6 -28 -39 -63 -72 -48 -46 -77 -66 -119 -79 -58 -18
-183 -23 -193 -8 -3 5 -19 13 -36 16 -33 7 -113 43 -165 73 -18 10 -52 40 -78
68 -50 54 -58 90 -27 118 10 9 17 25 14 35 -3 13 5 22 29 31 18 8 49 23 68 35
35 21 103 45 149 52 14 2 32 8 41 13 8 4 49 12 90 15 41 4 86 14 100 21 30 16
43 17 56 4z m-4426 -31 c30 -11 97 -32 149 -47 52 -14 89 -28 83 -30 -18 -6
-267 71 -286 89 -14 13 -7 11 54 -12z m1800 11 c-36 -4 -182 -7 -325 -7 l-260
1 245 6 c135 3 281 6 325 6 l80 1 -65 -7z m1568 -15 c-9 -9 -307 -56 -342 -54
-29 1 31 14 139 29 50 7 106 16 125 20 42 10 85 12 78 5z m2091 -19 c-2 -2
-31 -6 -64 -9 -39 -4 -51 -3 -35 2 25 9 107 15 99 7z m221 -6 c20 -6 21 -8 5
-8 -11 -1 -38 3 -60 7 l-40 9 35 0 c19 0 46 -4 60 -8z m-380 -22 c-45 -13
-149 -47 -175 -57 -63 -26 -75 -30 -75 -26 0 15 220 94 260 94 21 -1 19 -3
-10 -11z m494 -18 c88 -44 129 -101 132 -183 l2 -62 -6 55 c-12 94 -66 158
-164 195 -27 10 -48 19 -48 21 0 10 28 1 84 -26z m-2829 -1 c-22 -4 -56 -8
-75 -7 l-35 0 30 8 c17 4 50 8 75 8 l45 0 -40 -9z m-2607 -26 c48 -10 79 -19
70 -21 -17 -3 -169 25 -177 34 -8 7 19 4 107 -13z m2447 6 c-22 -4 -58 -8 -80
-7 -38 0 -39 1 -10 8 17 4 53 8 80 8 l50 0 -40 -9z m-175 -20 c-25 -4 -65 -7
-90 -7 -45 1 -45 1 -10 8 19 4 60 7 90 7 l55 0 -45 -8z m-2080 -19 c23 -7 22
-8 -10 -8 -19 0 -48 4 -65 8 -29 7 -28 8 10 8 22 0 51 -4 65 -8z m1865 0 c-27
-5 -72 -8 -100 -8 l-50 1 45 7 c25 4 70 7 100 7 l55 0 -50 -7z m-1790 -75 c26
-70 103 -144 180 -172 33 -12 51 -22 40 -22 -34 -1 -118 45 -161 88 -42 41
-68 86 -85 144 -13 46 5 19 26 -38z m1580 55 c-33 -4 -87 -8 -120 -7 l-60 0
50 7 c28 4 82 7 120 7 l70 0 -60 -7z m2759 -38 c-215 -128 -322 -259 -324
-397 -1 -42 -4 -54 -9 -40 -12 29 3 113 30 171 34 71 166 198 274 262 49 28
93 52 99 52 6 0 -26 -22 -70 -48z m-3039 18 c-27 -5 -90 -8 -140 -7 -90 0 -90
0 -25 7 36 4 99 7 140 7 71 0 73 0 25 -7z m-541 -17 l-161 -3 -16 -35 c-38
-79 -162 -176 -224 -175 -10 0 8 11 39 24 79 33 131 76 164 141 l29 55 165 -2
165 -2 -161 -3z m4516 -200 c-11 -21 -19 -31 -16 -23 25 79 31 93 34 78 2 -9
-6 -34 -18 -55z m-620 36 c0 -6 8 -8 19 -4 22 7 45 -23 33 -42 -10 -15 -57
-33 -88 -33 -27 0 -32 22 -12 65 11 24 48 36 48 14z m-2867 -116 c50 -52 130
-127 177 -166 47 -40 87 -75 90 -78 13 -14 212 -151 268 -183 34 -21 62 -39
62 -42 0 -18 -251 148 -370 244 -83 67 -275 247 -312 294 -50 63 -18 37 85
-69z m945 30 c-15 -2 -42 -2 -60 0 -18 2 -6 4 27 4 33 0 48 -2 33 -4z m2505
-24 c-22 -37 -134 -159 -147 -159 -5 0 17 28 50 63 32 34 70 77 83 95 30 41
38 41 14 1z m-2638 6 c-93 -33 -86 -79 29 -188 43 -42 51 -52 26 -36 -56 36
-119 110 -126 148 -6 30 -3 38 25 63 19 17 42 28 59 28 24 -1 22 -2 -13 -15z
m285 5 c23 -7 22 -8 -10 -8 -19 0 -48 4 -65 8 -29 7 -28 8 10 8 22 0 51 -4 65
-8z m123 -25 c57 -13 85 -26 56 -24 -8 0 -45 8 -84 19 -81 21 -58 26 28 5z
m197 -56 c52 -17 110 -39 129 -50 20 -11 27 -17 16 -13 -11 4 -76 26 -145 50
-69 23 -118 43 -109 43 9 1 58 -13 109 -30z m278 -119 c99 -51 183 -115 203
-153 7 -14 -2 -8 -22 13 -49 52 -93 82 -194 136 -96 50 -103 54 -91 54 4 0 51
-22 104 -50z m1572 -1 c-37 -32 -110 -72 -117 -65 -3 3 5 10 18 15 13 5 44 24
69 40 51 35 67 40 30 10z m-972 -90 c15 -13 39 -32 52 -41 14 -9 19 -17 12
-17 -20 -1 -132 115 -132 136 1 12 8 5 20 -18 11 -20 32 -47 48 -60z m-1273
-37 c-6 -6 -89 44 -106 64 -8 9 14 0 48 -22 34 -21 60 -40 58 -42z m2110 50
c-15 -13 -116 -52 -134 -52 -9 1 16 14 54 29 74 31 95 37 80 23z m-1947 -117
c39 -16 70 -30 68 -33 -12 -11 -216 77 -216 94 0 2 17 -4 38 -14 20 -11 70
-32 110 -47z m1787 57 c-14 -12 -115 -35 -122 -29 -3 4 8 9 23 12 16 4 40 11
54 15 33 11 56 12 45 2z m-510 -32 c63 -18 65 -19 25 -16 -25 2 -61 10 -80 19
-47 21 -29 20 55 -3z m335 -10 c-8 -5 -35 -9 -60 -8 l-45 1 40 7 c22 4 49 8
60 8 16 1 17 0 5 -8z m-878 -18 c3 -9 1 -26 -3 -37 -6 -15 -8 -11 -8 18 -1 40
4 48 11 19z m-547 -61 c50 -16 84 -30 76 -30 -17 -1 -181 49 -181 55 0 7 14 4
105 -25z m1920 0 c-34 -33 -449 -220 -461 -208 -2 2 40 21 93 42 54 21 157 68
228 105 128 66 158 79 140 61z m-1391 -14 c-9 -24 -80 -57 -120 -56 -36 1 -34
2 19 13 33 7 67 22 80 34 25 26 28 27 21 9z m-1247 -38 c38 -21 62 -39 51 -39
-8 0 -98 51 -98 56 0 7 9 4 47 -17z m873 11 l25 -8 -25 0 c-14 0 -34 3 -45 8
l-20 9 20 -1 c11 0 31 -4 45 -8z m125 -20 c29 -7 28 -8 -10 -8 -22 0 -51 4
-65 8 -23 7 -22 8 10 8 19 0 49 -4 65 -8z m-838 -70 c48 -23 108 -48 135 -57
52 -16 66 -30 21 -18 -33 8 -234 95 -247 107 -19 16 6 7 91 -32z m255 -99 c29
-10 67 -22 83 -26 17 -4 24 -10 18 -12 -14 -5 -142 34 -157 48 -15 13 -2 11
56 -10z m1748 15 c0 -7 -101 -38 -106 -33 -3 3 14 11 38 20 46 15 68 20 68 13z
m-130 -46 c-8 -5 -24 -10 -35 -10 -17 0 -17 2 -5 10 8 5 24 10 35 10 17 0 17
-2 5 -10z m-1415 -27 c39 -10 63 -19 54 -21 -16 -3 -128 24 -137 33 -9 9 10 6
83 -12z m1340 7 c-11 -5 -29 -9 -40 -9 l-20 0 20 9 c11 5 29 9 40 9 l20 0 -20
-9z m-80 -20 c-11 -5 -29 -9 -40 -9 -17 -1 -17 1 -5 9 8 5 26 9 40 9 23 0 23
-1 5 -9z m-1115 -20 l25 -8 -25 0 c-14 0 -34 3 -45 8 l-20 9 20 -1 c11 0 31
-4 45 -8z m1025 0 c-11 -5 -33 -8 -50 -8 -29 0 -29 0 -5 8 14 4 36 8 50 8 23
1 23 0 5 -8z m-890 -20 c29 -7 28 -8 -10 -8 -22 0 -51 4 -65 8 -23 7 -22 8 10
8 19 0 49 -4 65 -8z m775 0 c-14 -4 -43 -8 -65 -8 l-40 1 35 7 c19 4 49 8 65
8 29 0 29 0 5 -8z m-560 -20 l65 -7 -80 0 c-44 0 -93 3 -110 7 -27 7 -25 8 15
8 25 0 74 -4 110 -8z m405 0 c-27 -5 -77 -8 -110 -7 l-60 0 55 7 c30 4 80 7
110 7 l55 0 -50 -7z"/>
<path d="M10035 2724 c-169 -54 -216 -85 -331 -216 -46 -53 -75 -56 -92 -10
-6 15 -18 50 -28 77 -26 71 -62 106 -118 115 -25 4 -49 4 -52 1 -3 -3 -9 -6
-14 -6 -5 0 -22 -10 -38 -22 -55 -40 -64 -90 -71 -363 -5 -212 -8 -250 -24
-273 -9 -15 -26 -27 -36 -27 -24 0 -76 58 -104 116 -11 24 -25 44 -29 44 -4 0
-8 6 -8 14 0 13 -133 281 -150 301 -5 6 -11 22 -15 38 -4 15 -11 27 -16 27 -5
0 -9 7 -9 15 0 8 -9 19 -20 25 -11 6 -20 16 -20 23 0 30 -136 107 -190 107 -8
0 -40 -13 -70 -28 -52 -25 -56 -31 -79 -92 -24 -65 -24 -68 -28 -530 -4 -540
-7 -596 -34 -629 -21 -25 -45 -23 -56 6 -4 10 -9 20 -13 23 -3 3 -13 30 -22
60 -9 30 -25 80 -37 110 -12 30 -21 62 -21 71 0 9 -7 19 -15 23 -10 3 -15 19
-15 44 0 21 -4 42 -9 47 -6 6 -17 37 -25 69 -9 33 -20 64 -26 70 -5 5 -10 17
-10 26 0 18 -58 217 -71 242 -5 10 -9 28 -9 42 0 13 -7 29 -15 36 -8 7 -15 24
-15 38 0 27 -14 75 -37 129 -7 17 -13 34 -13 38 0 4 -12 35 -27 69 -44 100
-64 112 -234 141 -9 2 -40 -9 -70 -24 -47 -23 -59 -36 -96 -101 -24 -41 -43
-83 -43 -93 0 -11 -6 -33 -14 -50 -8 -18 -21 -54 -29 -82 -37 -125 -81 -266
-103 -329 -13 -38 -24 -80 -24 -93 0 -14 -5 -34 -12 -46 -6 -12 -19 -49 -29
-82 -9 -33 -34 -105 -54 -160 -20 -55 -41 -116 -47 -135 -7 -19 -19 -44 -29
-55 -9 -11 -19 -29 -21 -39 -6 -38 -26 -28 -32 16 -31 248 -40 306 -55 328
-48 75 -62 192 -37 315 20 96 30 271 17 304 -5 14 -17 51 -25 81 -12 46 -27
67 -79 119 -112 111 -210 137 -522 135 -208 -1 -269 -10 -314 -45 -78 -62 -80
-84 -81 -798 0 -525 2 -613 16 -670 19 -75 25 -85 74 -116 59 -36 166 -48 387
-42 174 5 207 8 274 30 89 29 171 78 232 140 24 24 53 49 65 56 24 13 31 4 57
-70 25 -69 49 -94 103 -107 33 -7 61 -8 83 -2 46 13 105 75 135 140 37 81 76
117 142 131 72 15 326 9 344 -8 6 -7 19 -13 27 -13 24 0 58 -42 94 -111 47
-91 47 -92 79 -118 24 -19 41 -24 91 -24 67 -1 88 3 108 20 19 14 61 28 79 24
8 -1 38 -14 66 -27 43 -21 59 -24 110 -18 114 14 134 63 134 341 0 289 21 413
69 413 20 0 121 -128 121 -153 0 -9 5 -19 10 -22 6 -4 51 -89 100 -190 90
-184 144 -279 174 -304 9 -7 16 -20 16 -27 0 -8 11 -20 25 -26 14 -6 25 -14
25 -18 0 -8 5 -8 85 -10 59 -1 96 3 114 14 14 9 51 84 51 104 1 27 38 102 54
108 10 4 44 -25 102 -85 130 -137 244 -188 434 -192 214 -5 414 89 484 229 47
93 56 148 56 364 l0 207 -31 63 c-17 35 -40 80 -51 101 l-20 38 26 28 c14 15
26 32 26 39 0 6 6 15 13 19 17 10 37 89 37 145 -1 121 -49 236 -132 314 -59
56 -79 68 -178 108 -86 34 -286 45 -365 20z m-3399 -295 c79 -14 118 -40 143
-94 26 -55 27 -95 2 -143 -28 -55 -60 -79 -126 -97 -169 -44 -255 15 -255 175
0 47 5 64 29 98 35 47 44 54 91 63 51 10 51 10 116 -2z m3651 -13 c34 -16 60
-38 77 -63 27 -41 97 -232 99 -273 2 -28 -30 -48 -91 -57 -20 -3 -67 -16 -103
-30 -55 -21 -69 -31 -83 -59 -26 -56 -21 -105 15 -142 17 -18 35 -32 40 -32 4
0 35 -16 68 -35 104 -61 126 -156 65 -277 -20 -39 -35 -53 -84 -78 -98 -49
-183 -36 -261 40 -68 65 -71 88 -67 512 4 385 5 391 63 455 58 63 173 80 262
39z m-2443 -392 c9 -3 16 -12 16 -20 0 -7 6 -17 13 -21 24 -14 60 -132 61
-196 1 -60 1 -61 -40 -90 -38 -27 -46 -29 -93 -22 -32 4 -63 16 -79 30 -23 20
-27 30 -26 81 1 107 66 244 115 244 10 0 24 -3 33 -6z m-1160 -255 c99 -27
155 -95 164 -195 4 -54 1 -68 -23 -112 -33 -61 -63 -84 -137 -106 -78 -22
-153 -20 -208 7 -61 30 -79 77 -79 212 0 96 1 102 30 140 16 22 40 45 52 52
27 15 149 17 201 2z"/>
  </g>
  
  <!-- White text -->
  <g transform="translate(0,950) scale(0.1,-0.1)" fill="#ffffff" filter="url(#text-glow)">
    <path d="M5240 8969 c-187 -24 -288 -42 -410 -73 -606 -157 -1131 -522 -1497
-1041 -269 -382 -438 -824 -498 -1305 -19 -151 -19 -499 0 -651 39 -317 126
-602 271 -888 35 -69 62 -126 60 -128 -11 -11 -249 -22 -483 -23 l-272 0 -20
44 c-25 58 -93 123 -161 155 -46 22 -69 26 -140 25 -77 0 -91 -3 -149 -34 -45
-24 -77 -51 -105 -87 -23 -29 -48 -53 -57 -53 -9 0 -54 7 -100 16 -509 96
-777 308 -729 576 34 183 175 367 471 613 96 81 358 253 574 378 107 62 544
286 599 307 17 6 26 27 44 96 24 96 27 124 13 124 -9 0 -82 -32 -321 -141
-126 -57 -518 -256 -552 -280 -14 -11 -29 -19 -32 -19 -9 0 -189 -109 -306
-185 -440 -286 -718 -583 -786 -838 -8 -29 -14 -94 -14 -144 0 -103 25 -187
81 -274 34 -54 123 -141 192 -188 57 -39 205 -109 297 -141 127 -44 365 -98
508 -115 46 -6 53 -10 58 -33 11 -44 33 -82 77 -129 101 -109 263 -137 396
-68 61 31 95 65 132 130 l30 53 63 -5 c158 -13 1002 40 1394 87 215 26 267 33
397 51 167 24 373 56 435 69 25 4 72 13 105 19 169 31 541 108 681 141 365 86
473 114 814 211 1748 493 3185 1206 3634 1804 102 136 151 239 177 373 16 83
-2 189 -48 285 -49 101 -165 214 -293 284 -267 145 -648 228 -1175 258 -251
14 -845 3 -845 -16 0 -4 23 -32 50 -63 l51 -55 212 6 c220 6 533 -7 752 -32
971 -112 1254 -502 744 -1025 -235 -242 -654 -521 -1164 -776 l-150 -75 -7
168 c-11 291 -49 501 -137 770 -209 637 -702 1221 -1295 1533 -325 171 -611
260 -981 305 -130 16 -475 18 -585 4z m565 -24 c615 -68 1150 -320 1594 -750
522 -506 821 -1205 821 -1922 0 -62 4 -113 9 -113 14 0 410 203 536 275 610
350 978 687 1050 961 121 467 -499 733 -1689 723 l-269 -2 -35 39 -35 39 114
8 c248 18 897 -4 1104 -38 22 -3 69 -11 105 -16 182 -30 323 -65 460 -116 121
-45 156 -63 257 -129 102 -68 174 -147 220 -243 31 -64 37 -87 41 -165 6 -114
-12 -190 -73 -303 -60 -114 -119 -189 -249 -318 -260 -258 -668 -524 -1216
-792 -185 -91 -338 -163 -346 -163 -2 0 -33 -13 -69 -30 -36 -16 -68 -30 -70
-30 -2 0 -33 -13 -67 -28 -80 -36 -332 -135 -513 -202 -77 -28 -158 -58 -180
-67 -65 -25 -529 -178 -670 -222 -323 -99 -816 -232 -1125 -303 -525 -119
-1037 -211 -1495 -268 -153 -18 -167 -20 -275 -30 -494 -48 -677 -60 -1021
-67 l-325 -6 -28 -54 c-31 -59 -75 -101 -139 -135 -35 -19 -58 -23 -132 -23
-78 0 -97 4 -140 27 -68 36 -108 81 -144 160 -31 66 -31 67 -78 73 -690 93
-1073 342 -1073 696 0 99 12 152 60 254 154 333 659 721 1435 1104 206 102
447 211 465 211 13 0 13 -11 -6 -89 -14 -59 -20 -69 -48 -81 -60 -26 -402
-198 -485 -243 -46 -26 -85 -47 -86 -47 -1 0 -54 -31 -116 -68 -560 -336 -871
-637 -945 -915 -70 -265 150 -488 596 -602 56 -14 256 -55 270 -55 4 0 20 19
35 43 34 52 66 80 130 114 68 35 186 37 257 4 58 -28 132 -106 158 -166 l19
-45 108 0 c175 0 646 19 675 28 l28 7 -30 55 c-235 430 -340 828 -340 1298 0
217 13 354 56 567 129 653 524 1280 1045 1661 144 105 202 141 354 219 275
141 502 214 820 265 206 32 479 38 690 15z"/>
<path d="M5237 8640 c-289 -46 -512 -149 -651 -302 -208 -227 -170 -447 89
-524 79 -23 267 -23 390 1 195 37 437 132 559 219 78 56 174 158 197 211 46
103 30 201 -43 271 -100 96 -178 123 -358 129 -69 2 -151 0 -183 -5z m359 -42
c84 -24 155 -74 198 -138 42 -62 42 -145 1 -216 -41 -70 -109 -139 -194 -197
-65 -43 -101 -62 -236 -121 -61 -27 -193 -65 -299 -86 -87 -18 -135 -21 -240
-18 -122 3 -135 5 -196 34 -72 35 -94 52 -130 103 -36 52 -34 146 5 224 119
240 408 398 805 441 70 8 217 -5 286 -26z"/>
<path d="M6305 8388 c-34 -18 -45 -40 -45 -88 0 -84 73 -188 224 -318 236
-205 575 -401 693 -402 33 0 50 7 75 29 30 26 33 35 33 83 0 46 -6 63 -48 130
-48 78 -197 233 -292 304 -260 195 -547 313 -640 262z m164 -28 c178 -50 437
-214 612 -389 171 -171 223 -289 155 -348 -15 -12 -39 -23 -53 -23 -85 0 -337
134 -553 293 -125 93 -299 268 -328 329 -30 66 -29 111 4 137 33 26 70 26 163
1z"/>
<path d="M3952 7810 c-114 -52 -323 -330 -462 -615 -122 -249 -163 -392 -140
-492 47 -212 249 -95 509 298 79 118 185 314 231 424 106 257 88 405 -50 405
-25 0 -64 -9 -88 -20z m152 -23 c32 -32 40 -94 21 -172 -65 -280 -302 -687
-526 -901 -73 -69 -114 -94 -158 -94 -37 0 -55 25 -71 93 -49 222 373 978 605
1083 48 21 102 18 129 -9z"/>
<path d="M7262 7279 c-108 -54 -164 -198 -164 -424 0 -131 9 -192 51 -322 112
-352 386 -600 565 -514 80 39 129 104 172 231 23 69 26 283 5 375 -91 394
-299 663 -521 672 -50 2 -75 -2 -108 -18z m222 -32 c114 -53 242 -214 315
-400 63 -159 84 -259 84 -407 1 -130 -1 -138 -33 -219 -58 -149 -154 -219
-260 -192 -166 44 -325 237 -419 510 -37 106 -51 197 -51 319 0 215 58 358
165 408 44 21 130 13 199 -19z"/>
<path d="M5465 6925 c-119 -30 -246 -100 -332 -185 -52 -50 -153 -191 -153
-211 0 -5 -9 -28 -19 -52 -37 -83 -46 -138 -45 -282 1 -129 3 -146 31 -222 42
-116 87 -187 173 -273 138 -137 261 -191 456 -198 102 -3 136 0 210 18 187 47
346 157 453 313 132 194 146 455 36 682 -98 202 -281 355 -492 409 -73 19
-245 20 -318 1z m295 -20 c81 -20 112 -31 151 -50 353 -182 512 -591 358 -921
-66 -141 -187 -262 -334 -335 -302 -149 -640 -84 -844 163 -58 71 -122 195
-142 278 -22 90 -18 271 9 364 69 240 249 420 492 493 89 26 225 30 310 8z"/>
<path d="M3435 6232 c-63 -30 -99 -66 -133 -134 -54 -107 -74 -257 -52 -398
41 -260 158 -512 298 -642 69 -63 121 -92 194 -108 47 -11 59 -10 110 10 96
36 163 139 193 294 33 170 10 327 -77 551 -42 106 -70 156 -135 242 -123 163
-285 238 -398 185z m194 -35 c64 -30 170 -134 230 -225 88 -135 181 -425 181
-567 0 -83 -32 -231 -64 -293 -52 -103 -117 -147 -205 -140 -139 11 -267 128
-371 336 -112 225 -156 440 -126 621 40 246 178 351 355 268z"/>
<path d="M8140 5634 c0 -9 -14 -64 -31 -123 -159 -555 -488 -1031 -955 -1382
-174 -131 -346 -230 -589 -339 -197 -89 -492 -166 -765 -201 -137 -18 -499
-15 -643 5 -510 70 -950 261 -1347 585 -30 24 -115 105 -189 178 -74 74 -138
130 -142 126 -26 -26 295 -320 511 -469 247 -170 571 -315 855 -384 752 -182
1534 -45 2185 384 162 107 258 184 404 326 301 292 527 651 662 1046 41 122
73 245 67 257 -8 13 -23 7 -23 -9z"/>
<path d="M6555 4820 c-136 -20 -344 -101 -469 -183 -229 -150 -331 -331 -266
-470 28 -60 96 -120 169 -149 50 -20 74 -22 226 -22 153 0 180 2 273 27 211
56 342 121 447 222 111 108 185 243 185 334 -1 150 -173 253 -416 250 -54 -1
-122 -5 -149 -9z m365 -46 c133 -50 196 -140 170 -242 -20 -81 -63 -154 -138
-233 -92 -99 -165 -147 -295 -197 -174 -68 -261 -85 -432 -86 -168 -1 -232 12
-303 64 -170 123 -120 317 128 504 122 92 361 191 525 217 27 4 100 6 160 4
91 -2 123 -8 185 -31z"/>
<path d="M4431 4410 c-81 -17 -116 -57 -100 -113 28 -99 276 -266 514 -345
226 -76 330 -97 471 -97 101 0 113 2 147 25 125 86 44 213 -213 337 -275 132
-665 224 -819 193z m214 -30 c332 -48 726 -213 828 -347 31 -41 34 -69 11
-101 -30 -44 -71 -56 -179 -56 -109 1 -198 17 -345 62 -239 74 -373 140 -507
250 -119 99 -135 165 -46 192 39 12 155 11 238 0z"/>
<path d="M110 3420 l0 -60 85 0 85 0 0 -240 0 -240 75 0 75 0 0 240 0 240 85
0 85 0 0 60 0 60 -245 0 -245 0 0 -60z"/>
<path d="M700 3180 l0 -300 80 0 80 0 0 120 0 120 110 0 110 0 0 -120 0 -120
75 0 75 0 0 300 0 300 -75 0 -75 0 0 -120 0 -120 -110 0 -110 0 0 120 0 120
-80 0 -80 0 0 -300z"/>
<path d="M1390 3180 l0 -300 200 0 200 0 0 60 0 60 -125 0 -125 0 0 60 0 60
105 0 105 0 0 60 0 60 -105 0 -105 0 0 60 0 60 120 0 120 0 0 60 0 60 -195 0
-195 0 0 -300z"/>
<path d="M2014 2625 c-90 -19 -170 -62 -219 -117 -80 -89 -79 -84 -83 -588 -3
-462 1 -527 38 -600 43 -83 137 -148 257 -176 100 -23 326 -15 408 15 77 28
131 65 172 119 50 66 63 125 63 284 l0 139 -147 -3 -148 -3 -5 -142 c-5 -132
-7 -143 -29 -167 -33 -35 -82 -49 -152 -44 -64 5 -105 27 -126 69 -10 18 -13
137 -13 475 l0 451 23 34 c50 75 209 80 272 9 17 -18 21 -41 25 -139 l5 -116
148 -3 149 -3 -4 133 c-3 115 -7 140 -28 183 -49 101 -157 173 -290 194 -88
14 -241 12 -316 -4z"/>
<path d="M7794 2633 c-57 -3 -73 -7 -77 -21 -40 -131 -57 -195 -54 -198 2 -2
18 43 36 101 l33 105 94 0 c110 0 93 20 153 -175 22 -71 52 -170 67 -218 14
-48 28 -86 31 -84 5 5 -137 469 -146 478 -10 11 -62 15 -137 12z"/>
<path d="M10048 2632 c-10 -4 55 -7 143 -7 88 0 150 3 137 7 -31 8 -258 8
-280 0z"/>
<path d="M6180 1885 l0 -746 248 2 c314 2 438 18 498 64 13 10 4 9 -27 -4 -92
-38 -155 -45 -434 -45 l-270 -1 -3 732 -2 733 267 3 268 2 -272 3 -273 2 0
-745z"/>
<path d="M8590 1885 l0 -745 65 0 65 0 -2 543 -3 542 -2 -532 -3 -533 -33 0
c-17 0 -42 -3 -54 -6 l-23 -6 0 736 0 736 85 0 85 0 261 -525 c144 -289 263
-525 265 -525 8 0 -26 71 -272 563 l-249 497 -92 0 -93 0 0 -745z"/>
<path d="M9390 2028 c0 -332 -3 -613 -6 -625 -4 -14 -2 -23 5 -23 8 0 11 170
11 620 l0 620 55 0 55 0 -2 -732 -3 -732 -72 1 c-40 1 -73 -2 -73 -8 0 -5 36
-9 80 -9 l80 0 0 745 0 745 -65 0 -65 0 0 -602z"/>
<path d="M110 1881 l0 -741 160 0 160 0 0 280 0 280 113 0 c213 0 320 31 408
119 73 73 88 119 96 281 14 297 -43 418 -230 490 -60 23 -73 24 -384 28 l-323
3 0 -740z m561 513 c49 -25 59 -64 59 -236 0 -165 -5 -187 -53 -222 -24 -17
-46 -21 -138 -24 l-109 -4 0 251 0 251 105 0 c77 0 114 -4 136 -16z"/>
<path d="M1190 1880 l0 -740 160 0 160 0 0 740 0 740 -160 0 -160 0 0 -740z"/>
<path d="M2850 1880 l0 -740 155 0 155 0 0 228 0 227 49 68 49 67 70 -132 c39
-73 108 -206 153 -295 l84 -163 163 0 163 0 -17 33 c-9 17 -89 167 -177 332
-88 165 -180 335 -203 379 l-42 78 214 323 c118 177 214 325 214 329 0 4 -70
5 -156 4 l-156 -3 -193 -303 c-106 -167 -198 -309 -204 -315 -8 -8 -11 75 -11
306 l0 317 -155 0 -155 0 0 -740z"/>
<path d="M4030 1880 l0 -740 420 0 420 0 0 105 0 105 -260 0 -260 0 0 635 0
635 -160 0 -160 0 0 -740z"/>
<path d="M5010 1880 l0 -740 430 0 430 0 0 105 0 105 -272 2 -273 3 -3 218 -2
217 220 0 220 0 0 105 0 105 -220 0 -220 0 0 205 0 205 275 0 275 0 0 105 0
105 -430 0 -430 0 0 -740z"/>
<path d="M6783 2609 c99 -19 164 -59 222 -135 8 -10 15 -14 15 -8 0 6 -15 28
-34 50 -48 56 -153 105 -220 103 -25 -1 -21 -3 17 -10z"/>
<path d="M9940 2599 c-74 -33 -126 -83 -162 -157 l-33 -67 -3 -470 c-1 -259 1
-481 5 -493 4 -11 8 201 8 471 l0 492 24 53 c31 69 115 145 190 171 31 11 47
19 36 20 -11 0 -40 -9 -65 -20z"/>
<path d="M10410 2598 c150 -57 220 -173 220 -363 l0 -75 -60 0 -59 0 -4 88 -3
87 -2 -92 -2 -93 70 0 70 0 0 88 c0 48 -7 111 -14 140 -16 57 -61 135 -98 166
-33 28 -130 76 -153 75 -11 0 5 -9 35 -21z"/>
<path d="M10135 2550 c-38 -5 -24 -7 54 -7 56 -1 101 0 100 1 -9 8 -109 11
-154 6z"/>
<path d="M6320 2255 l0 -285 173 2 172 2 -167 3 -168 3 0 276 0 276 213 -4
c196 -3 215 -5 254 -25 49 -27 79 -62 94 -112 11 -38 8 -261 -4 -296 -4 -11
-1 -6 8 12 18 40 22 230 5 293 -7 27 -25 57 -46 77 -57 53 -110 63 -336 63
l-198 0 0 -285z"/>
<path d="M10345 2520 c63 -25 110 -72 135 -136 10 -27 19 -41 20 -31 0 27 -39
99 -69 125 -35 30 -96 62 -118 61 -10 0 5 -9 32 -19z"/>
<path d="M7810 2496 c-14 -38 -12 -56 3 -28 12 21 16 15 46 -83 18 -59 35
-104 38 -102 4 5 -64 227 -73 236 -2 2 -8 -8 -14 -23z"/>
<path d="M9963 2485 c-45 -38 -84 -110 -82 -152 1 -24 2 -23 10 10 18 77 50
122 115 164 11 6 14 12 8 12 -6 1 -29 -15 -51 -34z"/>
<path d="M8711 2418 c1 -23 4 -33 6 -20 2 12 8 22 12 22 4 0 51 -90 105 -200
54 -111 100 -199 103 -197 6 6 -206 431 -217 435 -6 2 -9 -16 -9 -40z"/>
<path d="M7025 2430 c4 -14 11 -81 15 -150 l8 -125 -2 130 c-1 85 -6 137 -15
150 -12 19 -12 18 -6 -5z"/>
<path d="M7775 2385 c-9 -32 -14 -59 -12 -62 3 -2 13 21 22 52 9 32 14 59 12
62 -3 2 -13 -21 -22 -52z"/>
<path d="M7635 2345 c-21 -74 -14 -82 9 -9 10 31 15 58 13 61 -3 2 -13 -21
-22 -52z"/>
<path d="M7726 2224 c-15 -47 -25 -88 -23 -90 2 -3 17 34 31 82 15 47 25 88
23 90 -2 3 -17 -34 -31 -82z"/>
<path d="M9874 1865 c1 -427 2 -441 22 -485 28 -60 88 -115 146 -134 62 -20
162 -29 218 -19 37 7 27 9 -60 9 -162 1 -250 45 -297 149 -16 36 -19 85 -24
480 l-5 440 0 -440z"/>
<path d="M7595 2215 c-21 -74 -14 -82 9 -9 10 31 15 58 13 61 -3 2 -13 -21
-22 -52z"/>
<path d="M7900 2264 c0 -15 53 -174 57 -170 5 4 -47 176 -53 176 -2 0 -4 -3
-4 -6z"/>
<path d="M7017 2101 c-24 -67 -75 -109 -174 -142 l-78 -26 53 -12 c140 -30
211 -89 248 -206 9 -28 13 -33 13 -17 1 37 -45 117 -92 158 -25 22 -70 47
-107 59 l-63 21 62 23 c36 13 76 37 96 57 36 36 68 98 63 122 -2 7 -11 -9 -21
-37z"/>
<path d="M7556 2088 c-8 -29 -34 -113 -56 -186 -23 -74 -39 -136 -37 -139 3
-2 8 4 11 14 3 10 28 94 56 186 29 93 50 171 47 173 -3 3 -12 -19 -21 -48z"/>
<path d="M8081 2126 c-1 -5 17 -68 40 -140 64 -209 71 -228 76 -223 2 3 -18
79 -47 169 -51 163 -68 211 -69 194z"/>
<path d="M7690 2117 c0 -3 -36 -122 -80 -264 -45 -142 -83 -266 -86 -275 -3
-10 -1 -18 5 -18 6 0 11 8 11 17 0 10 36 134 81 276 44 143 78 262 75 265 -3
3 -6 3 -6 -1z"/>
<path d="M7966 2060 c3 -14 29 -101 59 -195 29 -93 56 -180 60 -193 4 -13 9
-21 12 -19 5 5 -109 374 -127 412 -9 17 -9 17 -4 -5z"/>
<path d="M6835 2040 c-21 -16 -42 -30 -48 -30 -6 0 -8 -3 -5 -6 9 -8 59 20 82
45 27 30 15 26 -29 -9z"/>
<path d="M8957 1973 c25 -60 74 -155 78 -151 4 4 -83 188 -89 188 -3 0 2 -17
11 -37z"/>
<path d="M10226 1889 c-14 -73 -21 -69 134 -69 l140 0 3 -187 2 -188 3 193 2
192 -135 0 -135 0 0 40 0 40 193 -3 192 -2 0 -250 c0 -240 -1 -252 -23 -301
-26 -58 -98 -132 -157 -162 -22 -12 -35 -21 -30 -21 21 -1 113 59 140 91 16
18 40 58 54 88 26 54 26 60 29 313 l3 257 -204 0 -204 0 -7 -31z"/>
<path d="M6322 1563 l3 -328 2 322 3 323 178 3 177 2 -182 3 -183 2 2 -327z"/>
<path d="M6828 1838 c45 -22 82 -63 101 -113 l11 -30 -6 30 c-3 17 -12 40 -20
53 -19 29 -92 82 -113 82 -9 -1 3 -10 27 -22z"/>
<path d="M9040 1807 c0 -12 233 -477 237 -474 4 4 -221 464 -232 475 -3 3 -5
3 -5 -1z"/>
<path d="M7406 1594 c-26 -86 -46 -158 -44 -160 3 -2 26 66 52 152 26 86 46
158 44 160 -3 2 -26 -66 -52 -152z"/>
<path d="M8201 1744 c-1 -6 3 -24 8 -40 5 -16 22 -69 37 -119 15 -49 29 -85
31 -80 2 6 -15 64 -36 130 -22 66 -40 115 -40 109z"/>
<path d="M6942 1564 c-1 -72 -7 -146 -13 -165 -28 -82 -93 -130 -199 -148 -37
-6 -45 -9 -24 -10 59 -2 137 29 180 73 55 55 65 96 61 253 l-3 128 -2 -131z"/>
<path d="M7084 1555 c0 -60 1 -84 3 -52 2 32 2 81 0 110 -2 29 -3 3 -3 -58z"/>
<path d="M8100 1633 c0 -6 4 -23 10 -37 8 -21 6 -25 -13 -29 -18 -4 -17 -5 6
-6 25 -1 27 1 21 27 -8 32 -23 62 -24 45z"/>
<path d="M7713 1563 c53 -2 141 -2 195 0 53 1 9 3 -98 3 -107 0 -151 -2 -97
-3z"/>
<path d="M9302 1553 c25 -57 72 -143 75 -139 5 5 -65 146 -73 146 -3 0 -4 -3
-2 -7z"/>
<path d="M8281 1485 c-1 -10 47 -170 80 -265 14 -42 16 -56 6 -62 -16 -10
-110 2 -120 16 -5 7 -7 3 -5 -9 3 -18 12 -20 76 -23 54 -2 72 0 72 10 0 17
-108 346 -109 333z"/>
<path d="M7818 1473 l323 -3 9 -23 c5 -12 26 -76 47 -141 20 -66 38 -115 40
-110 1 5 -17 70 -40 144 l-43 135 -330 0 -329 0 323 -2z"/>
<path d="M7350 1418 c0 -3 -16 -57 -35 -119 -34 -109 -40 -138 -30 -128 9 10
76 242 70 247 -3 3 -5 3 -5 0z"/>
<path d="M7446 1315 c-14 -50 -32 -106 -39 -125 l-13 -35 -62 2 c-36 1 -62 -2
-62 -8 0 -6 27 -9 67 -7 l67 3 38 120 c21 66 37 124 35 129 -2 6 -16 -30 -31
-79z"/>
<path d="M9766 1360 c9 -41 57 -102 108 -141 54 -41 158 -80 209 -78 23 1 14
4 -29 13 -130 26 -224 91 -274 191 -12 23 -18 30 -14 15z"/>
<path d="M10451 1336 c-15 -23 -42 -45 -83 -65 -34 -17 -55 -31 -47 -31 31 1
104 47 133 82 16 21 27 40 24 43 -3 4 -15 -10 -27 -29z"/>
<path d="M7040 1322 c0 -6 -21 -32 -47 -58 -36 -36 -40 -43 -16 -26 36 26 78
80 69 89 -3 4 -6 1 -6 -5z"/>
<path d="M9280 1317 c0 -10 69 -147 74 -147 6 0 -54 133 -65 145 -5 5 -9 6 -9
2z"/>
<path d="M6463 1233 c37 -2 97 -2 135 0 37 2 6 3 -68 3 -74 0 -105 -1 -67 -3z"/>
<path d="M10300 1150 l-35 -7 35 -1 c19 0 44 3 55 8 l20 9 -20 -1 c-11 0 -36
-4 -55 -8z"/>
<path d="M10147 1133 c18 -2 50 -2 70 0 21 2 7 4 -32 4 -38 0 -55 -2 -38 -4z"/>
<path d="M8952 870 c-82 -12 -141 -48 -169 -99 -22 -43 -23 -53 -23 -278 0
-175 3 -242 14 -266 30 -74 124 -117 252 -117 146 0 222 32 262 110 21 42 22
56 22 274 0 212 -2 233 -21 272 -32 66 -98 99 -219 108 -36 2 -89 1 -118 -4z
m161 -131 c17 -21 18 -42 15 -257 -3 -269 -1 -262 -95 -262 -40 0 -58 5 -73
20 -19 19 -20 33 -20 246 0 235 4 258 43 274 38 16 109 5 130 -21z"/>
<path d="M6830 815 l0 -55 95 0 95 0 0 -320 0 -320 90 0 90 0 0 320 0 320 95
0 95 0 0 55 0 55 -280 0 -280 0 0 -55z"/>
<path d="M7470 495 l0 -375 90 0 90 0 0 160 0 160 105 0 105 0 0 -160 0 -160
90 0 90 0 0 375 0 375 -90 0 -90 0 0 -160 0 -160 -105 0 -105 0 0 160 0 160
-90 0 -90 0 0 -375z"/>
<path d="M8170 495 l0 -375 245 0 245 0 0 50 0 50 -155 0 -155 0 0 110 0 110
125 0 125 0 0 55 0 55 -125 0 -125 0 0 105 0 105 155 0 155 0 0 55 0 55 -245
0 -245 0 0 -375z"/>
<path d="M9430 496 l0 -376 90 0 90 0 0 150 0 150 59 0 c49 0 65 -4 88 -24 27
-24 28 -28 33 -148 l5 -123 90 -3 90 -3 -3 98 c-5 181 -20 223 -93 253 l-31
13 29 12 c69 29 104 118 88 217 -12 71 -31 97 -93 126 -54 25 -67 26 -249 30
l-193 4 0 -376z m320 251 c53 -27 49 -181 -5 -205 -14 -7 -50 -12 -80 -12
l-55 0 0 115 0 115 58 0 c31 0 68 -6 82 -13z"/>
<path d="M10023 838 c8 -18 60 -133 116 -255 l101 -222 0 -120 0 -121 90 0 90
0 0 124 0 125 106 233 c58 128 110 241 115 251 9 16 2 17 -79 17 l-88 0 -64
-162 c-34 -90 -66 -166 -70 -171 -3 -4 -37 69 -74 163 l-68 170 -94 0 -94 0
13 -32z"/>
  </g>
</svg>